<svg width="138" height="96" viewBox="0 0 138 96" fill="none" xmlns="http://www.w3.org/2000/svg">
<path d="M75.8919 61.3982C75.4961 61.4425 75.1003 61.4646 74.7046 61.4646C74.3088 61.5089 73.935 61.5311 73.5832 61.5311C71.6483 61.5311 69.9773 61.3096 68.5701 60.8668C67.163 60.4239 65.8437 59.9146 64.6125 59.3389C63.8649 60.2689 63.0074 61.1989 62.04 62.1289C61.1165 63.1032 59.9732 64.0554 58.61 64.9854L52.0138 61.6639L45.5496 52.2975C47.4845 50.8803 48.8916 49.751 49.7711 48.9096C50.6506 48.0682 51.2003 47.5146 51.4202 47.2489V38.8789L46.3411 36.3546V25.5931L59.5994 24.3974L53.0692 21.0096C53.0692 21.0096 52.6954 20.4781 51.9479 19.4153C51.2443 18.3081 50.2988 16.9574 49.1115 15.3631C47.9682 13.7688 46.7589 12.2188 45.4836 10.7131L53.6629 3.14024L60.259 6.46167L60.7867 7.05953L65.6678 6.59453C65.4919 6.28453 65.2721 5.93024 65.0082 5.53167C64.7884 5.08881 64.5025 4.55738 64.1507 3.93738L74.6386 1.28023L81.2347 4.60167L81.5645 5.19953H81.7624C82.2022 4.13667 82.6859 2.63095 83.2136 0.682373L94.2291 1.34666L100.825 4.6681C100.781 4.80095 100.737 4.93381 100.693 5.06667C100.649 5.15524 100.605 5.24381 100.561 5.33238L104.057 7.12596V16.6917L102.013 16.891V46.2525L104.453 47.4482L102.21 59.1396L75.8919 61.3982ZM81.0369 16.0274C81.1248 15.806 81.2567 15.4295 81.4326 14.8981C81.6525 14.3667 81.7624 14.101 81.7624 14.101L96.8016 12.7724V4.53524L91.9865 5.00024C92.2503 4.5131 92.4922 4.00381 92.712 3.47238C92.9319 2.94095 93.1298 2.45381 93.3057 2.01095L83.6753 1.41309C83.2795 3.00738 82.7958 4.49095 82.2242 5.86381L76.0238 6.39524C75.8479 5.77524 75.606 5.08881 75.2982 4.33595C74.9904 3.53881 74.6606 2.78595 74.3088 2.07738L65.1401 4.40238C65.4919 4.9781 65.7778 5.50953 65.9976 5.99667C66.2615 6.43953 66.4814 6.8381 66.6573 7.19239L61.1165 7.72382V15.961L72.3959 14.9645C72.3959 14.9645 72.264 15.2303 72.0001 15.7617C71.7803 16.2931 71.6264 16.6696 71.5384 16.891L63.4252 17.6217V46.186L94.7568 43.396V14.8317L81.0369 16.0274ZM60.7207 13.3038C60.7207 13.3038 60.3689 12.8167 59.6654 11.8424C59.0057 10.8681 58.1263 9.67239 57.0269 8.25525C55.9715 6.79382 54.8282 5.39881 53.5969 4.07024L46.3411 10.7795C47.5284 12.1524 48.6278 13.5474 49.6392 14.9645C50.6946 16.3817 51.5301 17.5774 52.1457 18.5517C52.8054 19.526 53.1352 20.0131 53.1352 20.0131L60.7207 13.3038ZM72.3959 23.4674L85.7861 22.2717V23.866L72.3959 25.0617V23.4674ZM69.2298 47.7139C68.7021 47.7582 68.1964 47.8025 67.7126 47.8468C67.2729 47.8468 66.8551 47.8468 66.4594 47.8468C64.7884 47.8468 63.6011 47.6253 62.8975 47.1825C62.1939 46.7396 61.5782 46.0532 61.0505 45.1232V24.9289L47.0008 26.191V35.6239L52.0798 35.1589V47.4482C52.0798 47.4482 51.662 47.9132 50.8265 48.8432C49.991 49.7732 48.5179 50.9911 46.4071 52.4968L52.1457 60.7339C53.377 59.8925 54.4984 58.9625 55.5098 57.9439C56.5212 56.9253 57.4007 55.9511 58.1482 55.0211C59.1596 55.7739 60.3689 56.3718 61.7761 56.8146C63.1833 57.3018 64.8763 57.5454 66.8551 57.5454C67.2069 57.5454 67.5807 57.5232 67.9765 57.4789C68.3723 57.4789 68.79 57.4568 69.2298 57.4125L95.0207 55.2203L96.9995 44.9239L69.2298 47.7139ZM72.3959 30.2431L85.7861 29.0474V30.6417L72.3959 31.8374V30.2431ZM72.3959 37.0853L85.7861 35.8896V37.4839L72.3959 38.6796V37.0853Z" fill="white"/>
<path d="M0.122559 95.6673H5.06662C8.97987 95.6673 11.5569 92.8092 11.5569 89.0688C11.5569 84.9447 8.4072 82.2401 4.49395 82.2401H0.122559V95.6673ZM4.49395 82.9882C7.41457 82.9882 9.57163 85.3667 9.57163 89.0879C9.57163 92.6366 7.56728 94.9192 5.06662 94.9192H2.03146V82.9882H4.49395Z" fill="white"/>
<path d="M23.4619 95.6673H25.6189L19.3768 82.2401H18.3269L12.4475 95.6673H13.4211L15.1963 91.6583H21.6484L23.4619 95.6673ZM18.4224 84.446L21.3239 90.9102H15.5399L18.4224 84.446Z" fill="white"/>
<path d="M26.5199 88.9537C26.5199 92.8859 29.3832 95.8207 33.2965 95.8207C37.2097 95.8207 40.0731 92.8859 40.0731 88.9537C40.0731 85.0214 37.2097 82.1058 33.2965 82.1058C29.3832 82.1058 26.5199 85.0214 26.5199 88.9537ZM28.5051 88.9537C28.5051 85.3283 30.5476 82.7964 33.2965 82.7964C36.0644 82.7964 38.1069 85.3283 38.1069 88.9537C38.1069 92.579 36.0644 95.1302 33.2965 95.1302C30.5476 95.1302 28.5051 92.579 28.5051 88.9537Z" fill="white"/>
<path d="M48.1248 95.6673H53.0688C56.9821 95.6673 59.5591 92.8092 59.5591 89.0688C59.5591 84.9447 56.4094 82.2401 52.4962 82.2401H48.1248V95.6673ZM52.4962 82.9882C55.4168 82.9882 57.5738 85.3667 57.5738 89.0879C57.5738 92.6366 55.5695 94.9192 53.0688 94.9192H50.0337V82.9882H52.4962Z" fill="white"/>
<path d="M62.4975 95.6673H72.1374V94.9192H64.4064V89.1839H71.3739V88.4358H64.4064V82.9882H71.9465V82.2401H62.4975V95.6673ZM66.258 80.9741L69.8086 77.7708H67.7851L65.5135 80.9741H66.258Z" fill="white"/>
<path d="M80.0765 95.6673H81.9854V89.7209H84.2952L88.2466 95.6673H90.3082L86.2614 89.5675C88.3039 89.1647 89.5829 87.8987 89.5829 85.9805C89.5829 83.6403 87.6167 82.2401 84.677 82.2401H80.0765V95.6673ZM84.1997 82.9882C86.2804 82.9882 87.5976 84.0623 87.5976 85.9997C87.5976 87.937 86.2804 88.9729 84.2188 88.9729H81.9854V82.9882H84.1997Z" fill="white"/>
<path d="M91.691 88.9537C91.691 92.8859 94.5544 95.8207 98.4676 95.8207C102.381 95.8207 105.244 92.8859 105.244 88.9537C105.244 85.0214 102.381 82.1058 98.4676 82.1058C94.5544 82.1058 91.691 85.0214 91.691 88.9537ZM93.6763 88.9537C93.6763 85.3283 95.7188 82.7964 98.4676 82.7964C101.236 82.7964 103.278 85.3283 103.278 88.9537C103.278 92.579 101.236 95.1302 98.4676 95.1302C95.7188 95.1302 93.6763 92.579 93.6763 88.9537Z" fill="white"/>
<path d="M107.443 88.9537C107.443 92.8859 110.307 95.8207 114.22 95.8207C118.133 95.8207 120.996 92.8859 120.996 88.9537C120.996 85.0214 118.133 82.1058 114.22 82.1058C110.307 82.1058 107.443 85.0214 107.443 88.9537ZM109.428 88.9537C109.428 85.3283 111.471 82.7964 114.22 82.7964C116.988 82.7964 119.03 85.3283 119.03 88.9537C119.03 92.579 116.988 95.1302 114.22 95.1302C111.471 95.1302 109.428 92.579 109.428 88.9537Z" fill="white"/>
<path d="M125.944 82.2401H123.959V95.6673H124.722V84.2158L129.877 95.0918H131.041L135.928 84.1966V95.6673H137.837V82.2401H135.928V82.336L131.003 93.1161L125.944 82.2401Z" fill="white"/>
<path d="M142.95 85.0214C142.95 83.6212 143.981 82.758 145.737 82.7964C147.741 82.8347 148.753 84.024 148.753 85.8846H150.681C150.643 83.4485 148.944 82.1058 145.718 82.1058C142.53 82.1058 141.06 83.4102 141.06 85.5585C141.06 87.726 142.626 88.4358 145.031 89.5483C148.009 90.9294 149.04 91.3897 149.04 92.8476C149.04 94.478 147.722 95.1302 146.157 95.1302C143.752 95.1302 142.568 93.5765 142.568 91.6583H140.659C140.755 94.3245 142.607 95.8207 146.1 95.8207C149.383 95.8207 150.948 94.5355 150.948 92.368C150.948 90.3156 149.536 89.4524 146.749 88.2439C144.286 87.189 142.95 86.6135 142.95 85.0214Z" fill="white"/>
</svg>
