<svg width="161" height="50" viewBox="0 0 161 50" fill="none" xmlns="http://www.w3.org/2000/svg">
<path d="M80.4567 9.68522C80.4108 9.10955 80.1955 8.66052 79.8109 8.33815C79.432 8.01577 78.855 7.85458 78.08 7.85458C77.5863 7.85458 77.1815 7.91503 76.8658 8.03592C76.5558 8.15105 76.3261 8.30936 76.1769 8.51085C76.0276 8.71233 75.9501 8.9426 75.9444 9.20165C75.9329 9.41465 75.9702 9.6075 76.0563 9.7802C76.1482 9.94715 76.2917 10.0997 76.4869 10.2379C76.6821 10.3703 76.9318 10.4912 77.2361 10.6005C77.5403 10.7099 77.902 10.8078 78.3211 10.8941L79.7678 11.205C80.7438 11.4122 81.5791 11.6857 82.2737 12.0253C82.9684 12.365 83.5367 12.7651 83.9788 13.2256C84.4208 13.6804 84.7452 14.1927 84.9519 14.7626C85.1643 15.3326 85.2734 15.9543 85.2791 16.6278C85.2734 17.7907 84.9835 18.7751 84.4094 19.581C83.8353 20.3869 83.0143 21 81.9465 21.4203C80.8844 21.8405 79.6071 22.0506 78.1144 22.0506C76.5816 22.0506 75.244 21.8232 74.1015 21.3685C72.9648 20.9137 72.0807 20.2142 71.4492 19.2701C70.8234 18.3203 70.5077 17.1056 70.502 15.6261H75.0488C75.0775 16.1673 75.2124 16.6221 75.4535 16.9905C75.6946 17.3589 76.0333 17.6381 76.4697 17.8281C76.9117 18.0181 77.437 18.113 78.0455 18.113C78.5565 18.113 78.9842 18.0497 79.3286 17.9231C79.6731 17.7964 79.9343 17.6208 80.1123 17.3963C80.2902 17.1718 80.3821 16.9156 80.3878 16.6278C80.3821 16.3572 80.2931 16.1212 80.1209 15.9197C79.9544 15.7125 79.6788 15.5283 79.2942 15.3671C78.9095 15.2001 78.39 15.0447 77.7355 14.9008L75.9788 14.5209C74.4173 14.1812 73.1858 13.6142 72.2845 12.8197C71.3889 12.0196 70.944 10.9287 70.9497 9.54706C70.944 8.4245 71.2425 7.44298 71.8453 6.6025C72.4539 5.75626 73.2949 5.09712 74.3685 4.62507C75.4478 4.15302 76.6849 3.91699 78.08 3.91699C79.5037 3.91699 80.7352 4.1559 81.7743 4.6337C82.8134 5.11151 83.6142 5.78505 84.1769 6.65431C84.7452 7.51782 85.0323 8.52812 85.038 9.68522H80.4567Z" fill="#EEEEF0"/>
<path d="M87.1004 4.15877H93.0595L97.1585 14.1755H97.3652L101.464 4.15877H107.423V21.8434H102.739V11.6195H102.601L98.6741 21.7052H95.8496L91.9228 11.5504H91.785V21.8434H87.1004V4.15877Z" fill="#EEEEF0"/>
<path d="M114.274 21.8434H109.107L114.928 4.15877H121.473L127.294 21.8434H122.127L118.269 9.02895H118.132L114.274 21.8434ZM113.309 14.8663H123.023V18.4584H113.309V14.8663Z" fill="#EEEEF0"/>
<path d="M128.993 21.8434V4.15877H136.605C137.914 4.15877 139.059 4.39768 140.041 4.87549C141.023 5.35329 141.786 6.04122 142.332 6.93927C142.877 7.83731 143.15 8.91382 143.15 10.1688C143.15 11.4353 142.869 12.5031 142.306 13.3724C141.749 14.2417 140.965 14.8979 139.955 15.3412C138.95 15.7845 137.776 16.0061 136.433 16.0061H131.886V12.2757H135.468C136.031 12.2757 136.51 12.2067 136.907 12.0685C137.308 11.9246 137.616 11.6972 137.828 11.3863C138.046 11.0755 138.155 10.6696 138.155 10.1688C138.155 9.66219 138.046 9.25059 137.828 8.93397C137.616 8.61159 137.308 8.37557 136.907 8.22589C136.51 8.07046 136.031 7.99274 135.468 7.99274H133.781V21.8434H128.993ZM139.326 13.7264L143.735 21.8434H138.534L134.228 13.7264H139.326Z" fill="#EEEEF0"/>
<path d="M144.709 8.02729V4.15877H160.037V8.02729H154.732V21.8434H150.013V8.02729H144.709Z" fill="#EEEEF0"/>
<path d="M78.9953 36.3895C78.9561 35.9072 78.7724 35.5311 78.4442 35.2611C78.1209 34.991 77.6287 34.856 76.9674 34.856C76.5462 34.856 76.2009 34.9066 75.9315 35.0079C75.667 35.1043 75.4711 35.237 75.3437 35.4057C75.2164 35.5745 75.1502 35.7674 75.1454 35.9844C75.1356 36.1628 75.1674 36.3244 75.2409 36.469C75.3192 36.6089 75.4417 36.7367 75.6082 36.8524C75.7748 36.9633 75.9878 37.0646 76.2474 37.1562C76.507 37.2478 76.8156 37.3298 77.1732 37.4021L78.4075 37.6625C79.2402 37.8361 79.9528 38.0652 80.5455 38.3497C81.1382 38.6342 81.6231 38.9693 82.0002 39.3551C82.3774 39.7361 82.6541 40.1652 82.8305 40.6426C83.0117 41.12 83.1048 41.6408 83.1097 42.205C83.1048 43.1791 82.8574 44.0037 82.3676 44.6788C81.8778 45.3539 81.1774 45.8675 80.2663 46.2195C79.3602 46.5715 78.2703 46.7475 76.9968 46.7475C75.689 46.7475 74.5478 46.5571 73.5731 46.1761C72.6032 45.7952 71.8489 45.2093 71.3101 44.4184C70.7762 43.6228 70.5069 42.6053 70.502 41.366H74.3812C74.4057 41.8193 74.5208 42.2002 74.7266 42.5088C74.9323 42.8174 75.2213 43.0513 75.5935 43.2105C75.9707 43.3696 76.4189 43.4492 76.9381 43.4492C77.374 43.4492 77.7389 43.3961 78.0328 43.29C78.3267 43.1839 78.5495 43.0369 78.7014 42.8488C78.8532 42.6607 78.9316 42.4461 78.9365 42.205C78.9316 41.9784 78.8557 41.7807 78.7087 41.6119C78.5667 41.4383 78.3316 41.284 78.0034 41.149C77.6752 41.0091 77.2319 40.8789 76.6736 40.7584L75.1747 40.4401C73.8425 40.1556 72.7918 39.6806 72.0228 39.0151C71.2587 38.3449 70.8791 37.4311 70.884 36.2737C70.8791 35.3334 71.1338 34.5112 71.6481 33.8072C72.1673 33.0983 72.8849 32.5462 73.8008 32.1507C74.7217 31.7553 75.7772 31.5576 76.9674 31.5576C78.1822 31.5576 79.2328 31.7577 80.1194 32.158C81.0059 32.5582 81.6892 33.1224 82.1692 33.8506C82.6541 34.5739 82.899 35.4202 82.9039 36.3895H78.9953Z" fill="#FEFDFD"/>
<path d="M84.6636 46.5739V31.7602H95.508V35.0007H88.7486V37.5468H94.9496V40.7873H88.7486V43.3334H95.4786V46.5739H84.6636Z" fill="#FEFDFD"/>
<path d="M97.534 46.5739V31.7602H104.029C105.146 31.7602 106.123 31.9603 106.96 32.3605C107.798 32.7608 108.449 33.337 108.915 34.0893C109.38 34.8415 109.613 35.7433 109.613 36.7945C109.613 37.8554 109.373 38.7499 108.893 39.4781C108.418 40.2062 107.749 40.756 106.887 41.1273C106.03 41.4986 105.028 41.6842 103.882 41.6842H100.003V38.5595H103.059C103.539 38.5595 103.948 38.5016 104.286 38.3859C104.629 38.2653 104.891 38.0748 105.072 37.8144C105.258 37.554 105.351 37.2141 105.351 36.7945C105.351 36.3702 105.258 36.0254 105.072 35.7602C104.891 35.4901 104.629 35.2924 104.286 35.167C103.948 35.0368 103.539 34.9717 103.059 34.9717H101.619V46.5739H97.534ZM106.351 39.7746L110.112 46.5739H105.675L102.001 39.7746H106.351Z" fill="#FEFDFD"/>
<path d="M115.004 31.7602L118.089 42.205H118.207L121.293 31.7602H125.907L120.94 46.5739H115.356L110.39 31.7602H115.004Z" fill="#FEFDFD"/>
<path d="M131.441 31.7602V46.5739H127.356V31.7602H131.441Z" fill="#FEFDFD"/>
<path d="M147.425 37.3153H143.281C143.252 36.9778 143.173 36.6716 143.046 36.3967C142.923 36.1218 142.752 35.8855 142.532 35.6878C142.316 35.4853 142.054 35.331 141.745 35.2249C141.437 35.114 141.087 35.0585 140.695 35.0585C140.009 35.0585 139.429 35.2225 138.954 35.5504C138.483 35.8783 138.126 36.3485 137.881 36.9609C137.641 37.5733 137.521 38.3087 137.521 39.167C137.521 40.0736 137.643 40.8331 137.888 41.4455C138.138 42.0531 138.498 42.5112 138.968 42.8199C139.438 43.1237 140.004 43.2756 140.665 43.2756C141.043 43.2756 141.381 43.2297 141.679 43.1381C141.978 43.0417 142.238 42.9042 142.458 42.7258C142.679 42.5474 142.857 42.3328 142.994 42.0821C143.136 41.8265 143.232 41.5396 143.281 41.2213L147.425 41.2502C147.376 41.8771 147.197 42.5161 146.888 43.1671C146.58 43.8132 146.141 44.4112 145.573 44.9609C145.01 45.5058 144.312 45.9446 143.479 46.2774C142.647 46.6101 141.679 46.7765 140.577 46.7765C139.196 46.7765 137.957 46.4847 136.86 45.9012C135.767 45.3178 134.903 44.4594 134.266 43.3262C133.634 42.193 133.318 40.8066 133.318 39.167C133.318 37.5179 133.642 36.1291 134.288 35.0007C134.935 33.8675 135.806 33.0115 136.904 32.4328C138.001 31.8494 139.225 31.5576 140.577 31.5576C141.527 31.5576 142.402 31.6854 143.2 31.941C143.999 32.1966 144.699 32.5703 145.301 33.0621C145.904 33.5492 146.389 34.1496 146.756 34.8632C147.124 35.5769 147.346 36.3943 147.425 37.3153Z" fill="#FEFDFD"/>
<path d="M149.278 46.5739V31.7602H160.122V35.0007H153.363V37.5468H159.564V40.7873H153.363V43.3334H160.093V46.5739H149.278Z" fill="#FEFDFD"/>
<rect x="0.181152" y="38.9797" width="54.0381" height="11.9145" rx="5.95726" transform="rotate(-45 0.181152 38.9797)" fill="#FEFDFD"/>
<rect x="0.774414" y="14.5195" width="19.4459" height="11.9145" rx="5.95726" transform="rotate(-45 0.774414 14.5195)" fill="#FEFDFD"/>
<rect x="23.6257" y="41.3682" width="39.096" height="11.9145" rx="5.95726" transform="rotate(-45 23.6257 41.3682)" fill="#FEFDFD"/>
</svg>
