<svg width="130" height="102" viewBox="0 0 130 102" fill="none" xmlns="http://www.w3.org/2000/svg">
<path d="M28.7259 95.0983H29.0662V101.048H28.7259L24.1321 95.9401V101.048H23.7919V95.0983H24.1321L28.7259 100.206V95.0983ZM36.3822 98.8025C36.3822 99.925 35.5315 100.655 34.2838 100.655C33.0361 100.655 32.1854 99.925 32.1854 98.8025V95.0983H31.5048V98.8025C31.5048 100.206 32.5257 101.104 34.1137 101.104C35.6449 101.104 36.7225 100.206 36.7225 98.8025V95.0983H36.3822V98.8025ZM38.4806 95.3789H40.8625V100.991H41.4864V95.3789H43.8683V95.0421H38.4239V95.3789H38.4806ZM48.9725 98.4097L50.6739 101.048H49.9366L48.2352 98.4658C48.2352 98.4658 48.2352 98.4658 48.1785 98.4658H46.4771V101.048H45.8533V95.0983H48.1785C49.5396 95.0983 50.5037 95.7718 50.5037 96.782C50.5604 97.6239 49.9366 98.1852 48.9725 98.4097ZM49.8799 96.782C49.8799 95.9401 49.1993 95.3789 48.1785 95.3789H46.5338V98.129H48.1785C49.1993 98.129 49.8799 97.6239 49.8799 96.782ZM52.8857 100.991H53.5095V95.0421H52.8857V100.991ZM55.4945 95.3789H57.8764V100.991H58.5003V95.3789H60.8822V95.0421H55.4378V95.3789H55.4945ZM62.9239 100.991H63.5477V95.0421H62.9239V100.991ZM71.8846 98.0729C71.8846 99.8689 70.6936 101.104 68.8221 101.104C66.9505 101.104 65.7596 99.9251 65.7596 98.0729C65.7596 96.2208 66.9505 95.0421 68.8221 95.0421C70.6936 95.0421 71.8846 96.2208 71.8846 98.0729ZM71.204 98.0729C71.204 96.4453 70.2399 95.3228 68.8221 95.3228C67.4042 95.3228 66.4401 96.4453 66.4401 98.0729C66.4401 99.7006 67.4042 100.823 68.8221 100.823C70.2399 100.823 71.204 99.7006 71.204 98.0729ZM78.9737 100.206L74.3799 95.0983H74.0397V101.048H74.3799V95.9401L78.9737 101.048H79.314V95.0983H78.9737V100.206ZM85.836 95.0983H85.2122V101.048H89.579V100.711H85.8927V95.0983H85.836ZM94.1728 95.0983L96.9517 101.048H96.2712L95.4772 99.3077H92.3013L91.5073 101.048H91.0536L93.8325 95.0983H94.1728ZM95.3071 98.9709L93.8325 95.8279L92.358 98.9709H95.3071ZM103.757 99.4199C103.757 100.374 102.85 101.048 101.489 101.048H98.8233V95.0983H101.319C102.623 95.0983 103.474 95.6595 103.474 96.5575C103.474 97.1749 103.02 97.68 102.283 97.9045C103.247 98.0729 103.757 98.6342 103.757 99.4199ZM99.5038 97.7362H101.262C102.226 97.7362 102.793 97.2872 102.793 96.5575C102.793 95.884 102.226 95.3789 101.262 95.3789H99.5038V97.7362ZM103.133 99.3638C103.133 98.578 102.51 98.0168 101.432 98.0168H99.5038V100.655H101.432C102.51 100.711 103.133 100.15 103.133 99.3638ZM27.9319 78.0923C27.9319 81.5159 25.3798 82.3017 23.2815 82.3017C20.1055 82.3017 18.631 80.5057 18.631 78.0923C18.631 75.0054 18.631 71.9185 18.7444 68.8316H15.3983C15.5118 71.4695 15.5118 75.0054 15.5118 78.0923C15.5118 81.572 17.8937 84.0977 22.6576 84.0977C27.3648 84.0977 29.8602 81.6843 29.8602 78.0923C29.8602 75.0054 29.9169 71.3572 30.0303 68.8316H27.8185C27.8752 71.3572 27.9319 74.6125 27.9319 78.0923ZM71.3174 83.6487C70.2966 78.878 69.3325 73.939 68.4251 68.7755H65.079C63.7746 71.4695 62.3568 74.0512 60.9389 76.7453C59.5211 74.0512 58.2734 71.4695 57.0257 68.7755H53.2827C52.4887 73.5461 51.5246 78.5413 50.5037 83.6487H52.4887C53.2827 79.2148 54.0767 75.0615 54.8706 71.6379C56.8556 75.5105 58.6704 79.2148 60.145 82.47C61.9598 78.7658 63.8313 75.3421 65.7028 71.8062C66.6102 76.1279 67.2908 80.0005 67.9147 83.6487H71.3174ZM92.4147 76.1279C92.4147 80.8424 88.7283 83.8732 83.057 83.8732C78.6334 83.8732 73.5293 81.8527 73.5293 76.1279C73.5293 70.4031 78.4633 68.3826 83.057 68.3826C87.3672 68.3826 92.4147 70.4031 92.4147 76.1279ZM88.8985 76.1279C88.8985 73.1532 86.8568 70.0102 83.1705 70.0102C79.4274 70.0102 76.9888 72.4236 76.9888 76.1279C76.9888 79.1025 78.8603 82.0772 83.057 82.0772C85.9494 82.0772 88.8985 80.0567 88.8985 76.1279ZM129.562 76.1279C129.562 80.8424 125.875 83.8732 120.204 83.8732C115.78 83.8732 110.676 81.8527 110.676 76.1279C110.676 70.4031 115.61 68.3826 120.204 68.3826C124.514 68.3826 129.562 70.4031 129.562 76.1279ZM126.046 76.1279C126.046 73.1532 124.004 70.0102 120.318 70.0102C116.574 70.0102 114.136 72.4236 114.136 76.1279C114.136 79.1025 116.007 82.0772 120.204 82.0772C123.096 82.0772 126.046 80.0567 126.046 76.1279ZM46.9308 83.6487C46.7607 78.7096 46.7607 73.7706 46.9308 68.7755H43.5847C43.7549 73.6584 43.7549 78.5974 43.5847 83.6487H46.9308ZM3.48859 68.7755H0.199219C0.369358 73.6584 0.369358 78.5974 0.199219 83.6487H3.48859V70.5153C5.47355 70.5153 9.6136 70.5715 11.4284 70.6837V68.7755H3.48859ZM93.6057 70.6276C95.4772 70.5715 97.8025 70.5153 99.674 70.4592C99.7874 74.3319 99.7307 80.1128 99.6173 83.6487H102.963C102.85 80.1128 102.793 74.388 102.907 70.4592C104.778 70.4592 107.103 70.5153 108.975 70.6276V68.7755H93.6057V70.6276ZM34.9644 68.7755C35.1345 72.7604 35.1912 78.878 35.0211 82.3578C34.9644 83.7609 34.3405 85.2763 33.263 86.2866C35.8718 86.2866 38.2537 84.3783 38.2537 81.572C38.2537 77.2504 38.1403 72.5359 38.2537 68.7755H34.9644ZM3.48859 76.1279V76.8575C5.01984 76.8575 9.10318 76.9136 10.521 77.0259V75.1176C9.10318 75.1737 5.01984 75.286 3.48859 75.286V76.1279Z" fill="white"/>
<path fill-rule="evenodd" clip-rule="evenodd" d="M37.573 26.8398C37.573 12.3535 49.426 0.572754 64.0013 0.572754C78.5765 0.572754 90.4863 12.3535 90.4296 26.8398C90.4296 41.3262 78.5765 53.1069 64.0013 53.1069C49.426 53.1069 37.573 41.3262 37.573 26.8398ZM38.367 26.8962C38.367 40.8752 49.8797 52.3178 64.0013 52.3178C78.1228 52.3178 89.6356 40.8752 89.5789 26.8962C89.5789 12.9172 78.1228 1.47462 64.0013 1.47462C49.8797 1.47462 38.367 12.8608 38.367 26.8962ZM40.1818 26.8398C40.1818 13.7627 50.8438 3.16564 64.0013 3.16564C77.1587 3.16564 87.8208 13.7627 87.8208 26.8398C87.8208 39.917 77.1587 50.514 64.0013 50.514C50.8438 50.514 40.1818 39.917 40.1818 26.8398ZM81.9226 37.5496L83.7375 38.6206C84.8717 36.6477 85.7791 34.5058 86.403 32.3074L81.9226 37.5496ZM47.2709 42.4535H80.7884C81.5823 41.5517 82.3763 40.6498 83.0569 39.6352H45.0024C45.683 40.6498 46.4769 41.608 47.2709 42.4535ZM51.8647 46.2301H76.1379C77.499 45.3846 78.8034 44.37 79.9377 43.299H48.0649C49.2559 44.37 50.5036 45.3846 51.8647 46.2301ZM46.1934 37.4932L41.713 32.2511C42.2235 34.5058 43.1309 36.6477 44.3219 38.6206L46.1934 37.4932ZM41.316 23.4014C41.1459 24.5288 41.0325 25.6561 41.0325 26.8398C41.0325 28.0799 41.1459 29.32 41.3728 30.5601L46.9307 37.0986L49.2559 35.6895L41.316 23.4014ZM44.3219 15.1155C43.0175 17.2574 42.0533 19.6248 41.5429 22.1614L49.9932 35.1822L52.6587 33.6039L44.3219 15.1155ZM51.1274 7.95684L57.2524 30.8983L60.9388 28.6999L58.7837 4.63119C56.0047 5.25122 53.3959 6.43493 51.1274 7.95684ZM69.2189 4.63119L67.0638 28.6999L70.7502 30.8983L76.8752 7.95684C74.5499 6.43493 71.9978 5.25122 69.2189 4.63119ZM83.7375 15.1718L75.4006 33.6603L78.0661 35.2949L86.5164 22.2177C86.006 19.6812 85.0419 17.3138 83.7375 15.1718ZM78.8034 35.6331L81.1286 37.0423L86.7432 30.5037C86.9134 29.2636 87.0268 28.0235 87.0268 26.7835C87.0268 25.5998 86.9134 24.4724 86.7432 23.3451L78.8034 35.6331ZM74.6634 33.2093L83.1703 14.3263C81.6958 12.0716 79.8242 10.0988 77.6691 8.46415L71.5441 31.3492L74.6634 33.2093ZM66.2698 28.249L68.4249 4.46208C67.0071 4.18025 65.5325 4.01114 64.0013 4.01114C62.47 4.01114 60.9955 4.18025 59.5777 4.46208L61.7328 28.249L64.0013 26.8962L66.2698 28.249ZM56.5152 31.3492L50.3901 8.46415C48.235 10.0424 46.3068 12.0153 44.889 14.3263L53.3959 33.2093L56.5152 31.3492ZM74.7201 47.0756H53.3392C56.5152 48.7103 60.1448 49.6685 64.058 49.7249C67.9145 49.7249 71.5441 48.7667 74.7201 47.0756ZM64.0023 27.798L55.5521 32.871H59.4653V35.5203L64.0023 32.871H72.3959L64.0023 27.798Z" fill="white"/>
</svg>
