<svg width="125" height="52" viewBox="0 0 125 52" fill="none" xmlns="http://www.w3.org/2000/svg">
<path fill-rule="evenodd" clip-rule="evenodd" d="M22.5289 0.0272572C17.5177 0.419468 13.0957 2.11826 9.26966 5.12108C8.24084 5.92849 6.40166 7.73915 5.5987 8.73511C4.94073 9.55115 3.95055 10.9817 3.49439 11.7753C1.90387 14.5421 0.938797 17.4528 0.527908 20.7221C0.447 21.3658 0.422363 21.9807 0.422363 23.3569C0.422363 25.2823 0.486631 26.0471 0.779804 27.6131C1.24661 30.1065 2.11625 32.5092 3.32634 34.6489C6.73264 40.6721 12.5481 44.8949 19.3116 46.2566C20.2294 46.4413 21.6282 46.6292 22.5668 46.6937L23.1339 46.7327L23.6712 47.3354C25.5867 49.4836 28.2863 50.9897 31.1827 51.526C36.4715 52.5053 41.8318 50.2635 44.7941 45.8335C44.9827 45.5514 45.2171 45.1726 45.315 44.9917L45.4931 44.6627L46.1426 44.7914C47.1713 44.9954 48.0499 45.0629 49.1928 45.026C51.2759 44.9587 52.9289 44.5487 54.7774 43.641L55.5695 43.252L56.0128 43.6733C57.8519 45.4211 60.2629 46.6088 62.924 47.078C63.5882 47.195 63.881 47.2129 65.1584 47.2139C66.7267 47.215 67.3104 47.1535 68.4659 46.8652L69.0098 46.7294L69.5855 46.9808C71.2833 47.7221 72.9665 48.0362 74.9444 47.9808C76.0702 47.9493 76.7239 47.862 77.704 47.6126C79.8026 47.0785 82.0112 45.7926 83.4671 44.2573L83.8847 43.8169L84.8408 44.2851C86.76 45.225 88.7131 45.6804 90.8242 45.6804C94.3735 45.6804 97.7661 44.2959 100.268 41.8261C101.473 40.6369 102.508 39.1113 103.134 37.6022C103.429 36.8897 103.787 35.7717 103.848 35.3679C103.912 34.9479 103.933 34.9389 104.323 35.1721C105.758 36.0302 107.766 36.679 109.594 36.875C110.325 36.9536 111.717 36.9536 112.45 36.8752C118.641 36.2132 123.536 31.4476 124.278 25.3616C124.375 24.5637 124.361 22.9265 124.249 22.067C123.492 16.2438 118.716 11.5449 112.79 10.7926C111.93 10.6833 110.264 10.6695 109.457 10.765C103.963 11.4142 99.404 15.3689 98.0942 20.6207C97.9929 21.0268 97.887 21.3591 97.8587 21.3591C97.8305 21.3591 97.6523 21.2663 97.4628 21.1529C96.1699 20.3794 94.2504 19.7511 92.4118 19.4996C91.6577 19.3965 89.8662 19.4125 89.0309 19.53C86.9508 19.8224 85.1912 20.4757 83.4743 21.5931C82.2755 22.3734 81.1417 23.4027 80.2996 24.4752C80.043 24.802 79.8926 24.9471 79.8311 24.9271C79.7813 24.911 79.4404 24.7777 79.0736 24.6309C77.7141 24.0872 76.1133 23.7912 74.5318 23.7912H73.6555L73.1831 23.4462C71.7878 22.4273 70.227 21.6897 68.5945 21.2776C67.3071 20.9527 66.6235 20.8711 65.1878 20.8711C63.7572 20.8711 63.0678 20.9529 61.8007 21.2727C60.8535 21.5118 59.8491 21.8938 58.9665 22.3507L58.3018 22.6948L57.8493 22.2817C57.4554 21.9221 56.381 21.0894 56.1386 20.9558C56.0708 20.9184 56.1074 20.8092 56.3295 20.3856C57.3002 18.5348 57.5886 16.2106 57.1075 14.1168C56.079 9.64033 51.7471 6.5137 47.1505 6.93012C46.7385 6.96741 46.2029 7.03881 45.9604 7.08873C44.9479 7.2972 43.6038 7.84188 42.8358 8.35495L42.5206 8.56544L42.2266 8.23224C40.0575 5.77376 37.7 3.94149 34.9061 2.54278C32.3232 1.24964 29.7657 0.485136 26.8506 0.134792C26.0916 0.0435872 23.2301 -0.0276396 22.5289 0.0272572ZM26.401 5.80404C28.4883 6.13018 30.2669 6.85131 31.7016 7.95307C32.3733 8.46897 33.351 9.48936 33.7832 10.1258C35.8052 13.1029 36.0409 17.2614 34.3709 20.4956C32.8175 23.5043 29.75 25.4349 25.9183 25.8154C25.5834 25.8487 24.1092 25.8759 22.6424 25.8759H19.9754L19.9571 32.4629C19.9402 38.5273 19.9306 39.0775 19.8361 39.3974C19.3991 40.8761 18.2932 41.6848 16.7078 41.6848C15.1089 41.6848 13.9881 40.8553 13.5777 39.3684C13.4796 39.0131 13.4738 38.1374 13.4738 23.6754C13.4738 9.30157 13.4801 8.3363 13.5761 7.99447C13.7346 7.42981 13.9554 7.02387 14.3075 6.64932C14.7766 6.15027 15.3526 5.85743 16.1242 5.72563C16.2835 5.69842 18.5173 5.68249 21.0883 5.69025C25.178 5.70259 25.8427 5.71683 26.401 5.80404ZM23.7035 11.3364C22.0376 11.5995 20.7296 12.6823 20.1657 14.2653C20.0081 14.7077 20.0007 14.7757 20.002 15.7709C20.0032 16.7486 20.0132 16.842 20.1621 17.2765C20.3936 17.9519 20.7003 18.4284 21.2649 18.9897C21.6826 19.405 21.8566 19.5311 22.3233 19.7569C23.1221 20.1433 23.4991 20.2292 24.3811 20.2254C24.9561 20.223 25.2177 20.1941 25.5831 20.0929C27.2729 19.6247 28.3936 18.3415 28.6786 16.549C28.7706 15.9702 28.7125 14.9601 28.5556 14.4101C28.1206 12.8857 26.9773 11.7759 25.4831 11.4276C25.029 11.3217 24.0984 11.274 23.7035 11.3364ZM75.0366 11.3663C74.3071 11.5342 73.6611 11.8413 73.0606 12.306C71.9118 13.1949 71.2184 14.7613 71.328 16.2206C71.4409 17.7267 72.2085 19.0137 73.4785 19.8269C74.3386 20.3777 75.1067 20.5737 76.2603 20.5367C76.9353 20.515 77.1024 20.4889 77.5491 20.3347C79.0656 19.8115 80.1601 18.6712 80.6069 17.1491C80.7162 16.7766 80.739 16.5605 80.7367 15.9157C80.7334 14.9954 80.6505 14.6305 80.2699 13.86C79.6982 12.7027 78.6914 11.8625 77.3886 11.4556C76.8601 11.2905 75.5778 11.2418 75.0366 11.3663ZM49.5636 11.6578C49.7829 11.7036 50.0941 11.8116 50.2552 11.898C50.6015 12.0836 51.0715 12.5554 51.2464 12.893C51.5477 13.4747 51.5352 12.8949 51.5541 27.1209L51.5717 40.3818L51.4381 40.7582C51.1844 41.4728 50.7594 41.9441 50.0896 42.2532C49.7804 42.3959 49.6928 42.4086 49.0149 42.4086C48.2811 42.4086 48.2743 42.4074 47.8326 42.1923C47.1208 41.8459 46.6446 41.2159 46.4908 40.4171C46.4511 40.2108 46.4308 35.6335 46.4308 26.8795V13.6536L46.553 13.2935C46.8545 12.4048 47.4767 11.8429 48.3712 11.6515C48.8092 11.5578 49.0915 11.5593 49.5636 11.6578ZM76.7124 13.4968C77.5461 13.742 78.2692 14.4375 78.5006 15.2169C78.7642 16.1047 78.4837 17.0654 77.7633 17.7421C77.367 18.1145 76.9287 18.3304 76.3911 18.4181C75.1879 18.6144 73.9019 17.7241 73.5686 16.4638C73.4473 16.0053 73.4551 15.6548 73.5967 15.2035C73.9992 13.9201 75.4501 13.1254 76.7124 13.4968ZM113.528 14.1699C117.311 15.0365 120.074 18.1243 120.719 22.2056C120.84 22.9714 120.841 24.5336 120.721 25.3473C120.178 29.0179 117.85 31.9255 114.598 32.9949C113.585 33.3279 112.958 33.4226 111.727 33.4279C110.084 33.4352 109.032 33.2113 107.67 32.5649C106.803 32.153 106.091 31.6468 105.348 30.912C104.608 30.1813 104.125 29.5241 103.644 28.5956C101.629 24.7026 102.297 19.8064 105.264 16.7335C106.686 15.2612 108.39 14.3733 110.389 14.0642C110.988 13.9714 112.951 14.0375 113.528 14.1699ZM110.904 18.6931C109.714 18.9457 108.837 19.6904 108.231 20.9638C107.783 21.9047 107.608 22.8577 107.657 24.0741C107.739 26.0883 108.638 27.7479 110.023 28.4382C111.014 28.9324 112.273 28.9354 113.284 28.4462C113.806 28.1934 114.546 27.4982 114.868 26.9574C115.133 26.5136 115.426 25.7348 115.559 25.1231C115.715 24.4057 115.704 22.968 115.536 22.2532C115.199 20.8205 114.532 19.7691 113.57 19.1569C113.036 18.8173 112.558 18.6846 111.786 18.6621C111.43 18.6517 111.034 18.6657 110.904 18.6931ZM94.1002 23.4387C96.9131 23.9804 98.6184 25.8796 98.8835 28.7658C98.9222 29.1883 98.9381 31.112 98.9261 33.954C98.9073 38.4398 98.9063 38.4735 98.7769 38.8509C98.5205 39.5989 97.9842 40.1367 97.2991 40.3328C96.8172 40.4708 96.0647 40.4186 95.6384 40.2176C95.2716 40.0447 94.8404 39.6275 94.6514 39.2626C94.3539 38.6884 94.3523 38.6613 94.3501 34.1011C94.3479 29.4452 94.3364 29.2579 94.0129 28.5809C93.6841 27.8929 93.0983 27.4163 92.2942 27.1827C91.9172 27.0732 91.0466 27.0553 90.6247 27.1485C89.6645 27.3604 88.9227 28.098 88.6093 29.1524C88.5177 29.4604 88.5041 29.9622 88.4752 34.0988C88.4445 38.4789 88.4373 38.7152 88.3294 38.9631C88.1539 39.3662 87.9841 39.6068 87.6824 39.8803C87.2281 40.2921 86.9642 40.3818 86.2085 40.3818C85.6198 40.3818 85.5317 40.3674 85.2279 40.2204C84.7924 40.0098 84.2931 39.4807 84.1114 39.0375L83.9741 38.7025V31.9562V25.2099L84.1706 24.7972C84.4108 24.2927 84.7876 23.9133 85.2677 23.6927C85.5837 23.5475 85.685 23.5306 86.2379 23.5306C86.7957 23.5306 86.8911 23.5469 87.2262 23.6993C87.6852 23.908 88.0139 24.2609 88.1885 24.7326L88.3168 25.0792L88.578 24.7805C89.0974 24.1869 89.9431 23.7096 90.8414 23.5033C91.5037 23.3512 91.5537 23.3465 92.6009 23.3366C93.3003 23.33 93.6647 23.3549 94.1002 23.4387ZM65.8933 24.3395C68.1497 24.711 69.6814 25.5039 70.1689 26.5527C70.552 27.3767 70.3184 28.5007 69.6089 29.2477C69.1808 29.6985 68.9674 29.7855 68.3041 29.78C67.8275 29.776 67.6679 29.7475 67.2163 29.5859C65.3292 28.9105 64.7896 28.7865 64.031 28.8537C62.4623 28.9928 61.3171 29.8154 60.6182 31.3053C60.0102 32.6013 59.902 34.4097 60.3489 35.8057C60.8328 37.3173 61.803 38.3828 63.1004 38.8275C63.5134 38.969 63.6569 38.9887 64.2764 38.9889C65.0972 38.9893 65.2557 38.9513 66.7753 38.3914C67.7093 38.0473 67.8451 38.0124 68.2453 38.0132C69.7888 38.0163 70.813 39.7089 70.1348 41.136C69.1764 43.1532 64.5856 44.2755 61.3764 43.2771C59.0312 42.5475 57.1715 40.966 56.0409 38.7397C53.5519 33.839 55.3691 27.6411 60.0134 25.1901C60.8625 24.742 61.7498 24.4559 62.8316 24.2811C63.4668 24.1785 65.1059 24.2097 65.8933 24.3395ZM41.4536 24.5315C42.1982 24.8747 42.7605 25.6449 42.9002 26.5129C42.9393 26.756 42.9605 29.3603 42.9602 33.8672C42.9595 41.5154 42.9693 41.2881 42.6101 42.0086C42.1237 42.9842 41.0338 43.509 39.8938 43.3164C39.3604 43.2263 39.0437 43.0879 38.7273 42.8063C38.4209 42.5338 38.2492 42.2722 38.1161 41.8758L38.015 41.5746L37.6288 41.9777C36.6984 42.9491 35.5846 43.4047 33.8145 43.538C31.9566 43.6779 30.1672 43.2595 28.8442 42.3757C27.3803 41.3977 26.3844 39.7104 26.1473 37.8064C26.1112 37.5165 26.0866 35.9054 26.0871 33.8687C26.0881 30.0752 26.0944 29.996 26.4479 29.3428C26.6752 28.9227 27.163 28.4622 27.5795 28.2744C28.2015 27.9939 29.0928 27.9968 29.7239 28.2813C30.342 28.56 30.7532 29.0053 31.0437 29.7105C31.1657 30.0067 31.1708 30.1201 31.2059 33.3171C31.2459 36.9631 31.2414 36.917 31.641 37.7181C32.2064 38.8514 33.5509 39.4907 34.991 39.3109C36.3071 39.1466 37.1959 38.424 37.6267 37.1679C37.7547 36.7946 37.756 36.7495 37.7882 31.6377C37.8183 26.8508 37.8283 26.4613 37.9281 26.1654C38.1862 25.4007 38.6111 24.8661 39.1905 24.5769C39.6277 24.3587 39.8652 24.3147 40.4987 24.3344C40.986 24.3495 41.1175 24.3766 41.4536 24.5315ZM76.4921 26.5261C76.9353 26.7282 77.4466 27.21 77.6604 27.6272C78.0223 28.3333 78.006 27.9454 78.006 35.8164C78.006 40.8451 77.9864 43.1033 77.941 43.3178C77.6494 44.695 76.3899 45.5693 75.0327 45.3366C73.9753 45.1552 73.2638 44.4822 72.9804 43.3954C72.8466 42.8821 72.8444 28.7962 72.978 28.2908C73.1139 27.7772 73.3766 27.3225 73.7252 26.9978C74.293 26.4691 74.6727 26.3346 75.5364 26.3563C76.0608 26.3695 76.2048 26.3951 76.4921 26.5261ZM107.523 40.7865C106.234 41.0723 105.17 42.061 104.782 43.3351C104.706 43.5822 104.677 43.8667 104.678 44.3196C104.681 44.8575 104.706 45.0286 104.842 45.4198C105.22 46.5104 106.063 47.3457 107.163 47.7189C107.487 47.8289 107.676 47.8512 108.288 47.8516C109.184 47.8521 109.675 47.7168 110.32 47.2916C110.998 46.8455 111.508 46.1991 111.768 45.4598C111.884 45.129 111.904 44.9581 111.903 44.2906C111.903 43.6194 111.883 43.4556 111.766 43.1325C111.374 42.0563 110.486 41.2039 109.405 40.868C108.901 40.7114 108.032 40.6738 107.523 40.7865Z" fill="white"/>
</svg>
