<svg width="140" height="84" viewBox="0 0 140 84" fill="none" xmlns="http://www.w3.org/2000/svg">
<path fill-rule="evenodd" clip-rule="evenodd" d="M53.3361 31.5202C53.6403 32.1721 54.567 32.173 54.8725 31.5217L62.915 14.3772C65.9434 7.92153 61.2323 0.50788 54.1016 0.507881C47.0012 0.507879 42.3045 7.88282 45.3073 14.3169L53.3361 31.5202ZM59.503 9.96575C59.503 12.9342 57.0966 15.3406 54.1281 15.3406C51.1597 15.3406 48.7533 12.9342 48.7533 9.96575C48.7533 6.9973 51.1597 4.59089 54.1281 4.59089C57.0966 4.59089 59.503 6.9973 59.503 9.96575ZM55.3071 31.7256C54.8287 32.7455 53.3775 32.7441 52.9011 31.7232L44.8723 14.52C41.721 7.76757 46.65 0.0278308 54.1016 0.027832C61.5839 0.0278314 66.5273 7.80706 63.3496 14.5811L55.3071 31.7256ZM59.0229 9.96575C59.0229 12.6691 56.8315 14.8606 54.1281 14.8606C51.4248 14.8606 49.2333 12.6691 49.2333 9.96575C49.2333 7.26242 51.4248 5.07094 54.1281 5.07094C56.8315 5.07094 59.0229 7.26242 59.0229 9.96575ZM86.3213 13.9963L86.1486 13.9298L77.6379 10.6488C76.9417 10.3804 76.2471 11.0917 76.5566 11.8012L85.5429 32.3979C85.8415 33.0823 86.8011 33.0823 87.0997 32.3979L96.086 11.8012C96.3955 11.0917 95.7009 10.3804 95.0047 10.6488L86.494 13.9298L86.3213 13.9963ZM86.3213 13.4818L77.8106 10.2009C76.7066 9.77532 75.6409 10.9029 76.1166 11.9932L85.1029 32.5899C85.5691 33.6583 87.0735 33.6583 87.5397 32.5898L96.526 11.9932C97.0017 10.9029 95.936 9.77532 94.832 10.2009L86.3213 13.4818ZM70.4124 29.5703L70.2397 29.5037L70.067 29.5703L61.5563 32.8512C60.8601 33.1196 60.1655 32.4083 60.475 31.6988L69.4613 11.1022C69.7599 10.4178 70.7195 10.4178 71.0181 11.1022L80.0044 31.6988C80.3139 32.4083 79.6193 33.1196 78.9231 32.8512L70.4124 29.5703ZM78.7504 33.2991L70.2397 30.0182L61.7289 33.2991C60.625 33.7247 59.5593 32.5972 60.035 31.5069L69.0213 10.9102C69.4875 9.84174 70.9919 9.84173 71.4581 10.9102L80.4444 31.5069C80.9201 32.5972 79.8544 33.7247 78.7504 33.2991Z" fill="white"/>
<g clip-path="url(#clip0_9011_242)">
<path fill-rule="evenodd" clip-rule="evenodd" d="M71.739 63.1402C73.0704 62.412 74.1221 61.2585 74.7278 59.8623C75.3335 58.4661 75.4586 56.9067 75.0833 55.431C74.708 53.9553 73.8537 52.6475 72.6556 51.7145C71.4575 50.7814 69.984 50.2764 68.4682 50.2793L59.2039 50.5676C59.0518 50.5676 58.9058 50.6284 58.7982 50.7365C58.6906 50.8446 58.6301 50.9913 58.6301 51.1442V68.1133C58.6301 68.2662 58.6906 68.4128 58.7982 68.521C58.9058 68.6291 59.0518 68.6898 59.2039 68.6898H62.5264C62.6785 68.6898 62.8245 68.6291 62.9321 68.521C63.0397 68.4128 63.1002 68.2662 63.1002 68.1133V54.7652H64.1216H68.385C68.9906 54.7564 69.5771 54.9783 70.0263 55.3865C70.4756 55.7946 70.7544 56.3586 70.8065 56.9649C70.8278 57.2869 70.7829 57.6099 70.6749 57.9139C70.5668 58.2178 70.3979 58.4962 70.1784 58.7319C69.9589 58.9675 69.6936 59.1554 69.399 59.2839C69.1043 59.4124 68.7866 59.4787 68.4654 59.4788H64.6983V61.7246L66.8874 63.9791L71.2886 68.5169C71.3421 68.5726 71.4063 68.6168 71.4773 68.6471C71.5483 68.6773 71.6246 68.6928 71.7017 68.6927H75.7557C75.8696 68.694 75.9813 68.6611 76.0765 68.5984C76.1718 68.5357 76.2463 68.4459 76.2906 68.3405C76.3349 68.2351 76.347 68.1188 76.3253 68.0064C76.3036 67.8941 76.2492 67.7908 76.1689 67.7096L71.739 63.1402Z" fill="white"/>
<path d="M40.6297 67.7934C40.626 68.0354 40.5287 68.2664 40.3584 68.4376C40.188 68.6087 39.9581 68.7065 39.7173 68.7102H36.4035C36.1861 68.7061 35.9742 68.6413 35.7913 68.5232C35.6084 68.4051 35.4618 68.2383 35.3678 68.0413L30.4903 59.7211C30.4071 59.5885 30.3239 59.5222 30.2436 59.5222C30.1632 59.5222 30.1173 59.5972 30.1173 59.7471V68.2143C30.1158 68.3454 30.0634 68.4706 29.9711 68.5633C29.8789 68.656 29.7543 68.7087 29.6238 68.7102H25.9256C25.7917 68.7092 25.6633 68.6566 25.5669 68.5632C25.5171 68.5198 25.4769 68.4663 25.4492 68.4061C25.4215 68.346 25.4069 68.2806 25.4063 68.2143V51.179C25.4055 51.0583 25.4293 50.9388 25.4762 50.8278C25.523 50.7167 25.592 50.6165 25.6788 50.5332C25.7617 50.4459 25.8615 50.3766 25.972 50.3295C26.0825 50.2824 26.2015 50.2585 26.3215 50.2593H29.5837C29.9796 50.2593 30.3095 50.5015 30.5735 50.98L35.5887 59.5482C35.6719 59.6981 35.7465 59.7702 35.8125 59.7702C35.8785 59.7702 35.9358 59.6981 35.9358 59.5482V50.7696C35.9353 50.7045 35.9481 50.64 35.9732 50.58C35.9984 50.52 36.0354 50.4658 36.0822 50.4207C36.1271 50.3737 36.181 50.3362 36.2406 50.3104C36.3002 50.2847 36.3644 50.2712 36.4293 50.2708H40.1362C40.2011 50.2712 40.2653 50.2847 40.3249 50.3104C40.3845 50.3362 40.4384 50.3737 40.4834 50.4207C40.5301 50.4658 40.5671 50.52 40.5923 50.58C40.6175 50.64 40.6302 50.7045 40.6297 50.7696V67.7934Z" fill="white"/>
<path d="M55.7581 67.9374C55.7581 68.2122 55.5974 68.3737 55.276 68.4217C53.413 68.6204 51.5405 68.7167 49.667 68.71C48.897 68.7193 48.128 68.6508 47.3717 68.5053C46.6985 68.3638 46.0511 68.1187 45.4523 67.7788C44.8071 67.3968 44.3035 66.8138 44.0177 66.1182C43.6519 65.2251 43.4789 64.2641 43.5099 63.2987V55.6848C43.4936 54.8827 43.6159 54.0838 43.8714 53.3237C44.0554 52.7406 44.3616 52.2038 44.7694 51.7496C45.1673 51.3498 45.643 51.0368 46.1667 50.8299C46.6943 50.6048 47.2489 50.4498 47.8164 50.3687C48.4273 50.2917 49.0427 50.2551 49.6584 50.2591C51.5319 50.2524 53.4044 50.3487 55.2674 50.5474C55.5888 50.5955 55.7495 50.7569 55.7495 51.0317V53.9897C55.7458 54.117 55.6939 54.2381 55.6043 54.3281C55.5147 54.4182 55.3941 54.4704 55.2674 54.474H49.5293C49.2067 54.4381 48.8828 54.529 48.6255 54.7277C48.4232 55.0029 48.3319 55.3448 48.3701 55.6848V57.4521H55.1584C55.2216 57.4519 55.2842 57.4645 55.3424 57.4893C55.4006 57.5141 55.4532 57.5505 55.497 57.5962C55.5429 57.6399 55.5794 57.6927 55.6041 57.7513C55.6288 57.8098 55.6411 57.8728 55.6404 57.9364V60.7934C55.6413 60.8566 55.6289 60.9192 55.6042 60.9773C55.5795 61.0354 55.543 61.0877 55.497 61.1307C55.4537 61.1774 55.4013 61.2146 55.343 61.2399C55.2848 61.2652 55.2219 61.2781 55.1584 61.2778H48.3902V63.2958C48.3526 63.6358 48.4438 63.9775 48.6456 64.253C48.9029 64.4516 49.2268 64.5425 49.5493 64.5067H55.2875C55.4147 64.5089 55.536 64.5606 55.6259 64.651C55.7158 64.7413 55.7673 64.8632 55.7695 64.991L55.7581 67.9374Z" fill="white"/>
<path d="M109.407 53.9119C109.407 53.9762 109.393 54.0397 109.365 54.0976C109.337 54.1555 109.297 54.2063 109.247 54.2463C109.147 54.3334 109.02 54.3815 108.888 54.3818H105.207V68.22C105.204 68.3511 105.151 68.4759 105.058 68.5683C104.966 68.6608 104.841 68.7136 104.711 68.7159H100.694C100.564 68.7129 100.44 68.6597 100.348 68.5674C100.256 68.475 100.203 68.3506 100.201 68.22V54.3818H96.4334C96.3048 54.3825 96.1807 54.334 96.0862 54.2463C96.039 54.2046 96.0012 54.1531 95.9754 54.0954C95.9497 54.0377 95.9366 53.9751 95.937 53.9119V50.7406C95.9364 50.6774 95.9494 50.6147 95.9752 50.557C96.0009 50.4993 96.0388 50.4478 96.0862 50.4062C96.1796 50.3164 96.3042 50.2668 96.4334 50.2678H108.888C109.021 50.2679 109.148 50.3172 109.247 50.4062C109.297 50.4459 109.338 50.4967 109.366 50.5547C109.394 50.6126 109.408 50.6763 109.407 50.7406V53.9119Z" fill="white"/>
<path d="M117.318 68.2141C117.315 68.3447 117.262 68.4691 117.17 68.5615C117.078 68.6538 116.954 68.707 116.824 68.71H112.767C112.637 68.707 112.513 68.6538 112.422 68.5615C112.33 68.4691 112.277 68.3447 112.274 68.2141V50.7319C112.273 50.6685 112.285 50.6057 112.311 50.5479C112.337 50.4901 112.375 50.4387 112.423 50.3974C112.515 50.3073 112.639 50.2575 112.767 50.2591H116.821C116.95 50.2575 117.074 50.3073 117.166 50.3974C117.213 50.4387 117.252 50.4901 117.277 50.5479C117.303 50.6057 117.316 50.6685 117.315 50.7319L117.318 68.2141Z" fill="white"/>
<path d="M94.4795 68.2143L91.2231 53.1681C90.9783 52.0342 90.4637 51.2654 89.6795 50.8618C88.8953 50.4582 87.8538 50.2516 86.5551 50.2419C85.2582 50.2419 84.2168 50.4466 83.4306 50.856C82.6445 51.2654 82.13 52.0342 81.8871 53.1624L78.6249 68.2143C78.5589 68.5573 78.688 68.7303 79.0122 68.7303H83.2154C83.2345 68.732 83.2537 68.732 83.2728 68.7303L86.1907 54.575C86.2155 54.4793 86.2712 54.3945 86.3491 54.3341C86.427 54.2736 86.5226 54.2407 86.6211 54.2407C86.7195 54.2407 86.8152 54.2736 86.893 54.3341C86.9709 54.3945 87.0266 54.4793 87.0514 54.575L89.9922 68.7303H94.118C94.4393 68.7303 94.5598 68.5573 94.4795 68.2143Z" fill="white"/>
<path fill-rule="evenodd" clip-rule="evenodd" d="M137.981 59.0868C137.525 58.522 136.951 58.065 136.299 57.7481C135.648 57.4313 134.935 57.2623 134.211 57.2532H125.736C125.425 57.2368 125.134 57.0975 124.925 56.8657C124.716 56.6339 124.608 56.3286 124.622 56.0164C124.608 55.7045 124.716 55.3995 124.925 55.1682C125.134 54.9369 125.425 54.7982 125.736 54.7825H138.265C138.417 54.7825 138.563 54.7218 138.671 54.6136C138.778 54.5055 138.839 54.3588 138.839 54.2059V50.8732C138.839 50.7203 138.778 50.5736 138.671 50.4655C138.563 50.3574 138.417 50.2966 138.265 50.2966H125.354C122.508 50.2966 120.19 52.8538 120.19 56.0049C120.191 56.4233 120.235 56.8405 120.319 57.2503C120.844 59.8594 122.933 61.7189 125.345 61.7247H133.821C134.127 61.7544 134.412 61.8979 134.619 62.1271C134.826 62.3562 134.941 62.6547 134.941 62.9643C134.941 63.2739 134.826 63.5724 134.619 63.8016C134.412 64.0308 134.127 64.1742 133.821 64.204H121.498C121.346 64.204 121.2 64.2647 121.092 64.3729C120.985 64.481 120.924 64.6277 120.924 64.7806V68.096C120.924 68.2489 120.985 68.3956 121.092 68.5037C121.2 68.6118 121.346 68.6726 121.498 68.6726H134.211C137.057 68.6726 139.375 66.1183 139.375 62.9643C139.382 61.5482 138.891 60.1753 137.99 59.0868H137.981Z" fill="white"/>
<path fill-rule="evenodd" clip-rule="evenodd" d="M14.2311 50.1929H9.19293C6.98623 50.1929 4.86991 51.0737 3.30954 52.6416C1.74917 54.2095 0.872559 56.3361 0.872559 58.5534L0.872559 60.5715C0.877118 62.7859 1.75574 64.908 3.31562 66.4721C4.87549 68.0363 6.98921 68.9148 9.19293 68.9148H14.2311C16.4323 68.911 18.5423 68.0308 20.0991 66.467C21.6559 64.9033 22.5325 62.7834 22.5371 60.5715V58.5534C22.5371 56.3386 21.6624 54.2142 20.1052 52.6467C18.5479 51.0792 16.4353 50.1967 14.2311 50.1929V50.1929ZM16.7473 61.4364C16.7473 62.9355 15.3758 64.1521 13.6859 64.1521H9.71224C8.02234 64.1521 6.65378 62.9355 6.65378 61.4364V57.4176C6.65378 55.9184 8.02234 54.7018 9.71224 54.7018H13.6859C15.3758 54.7018 16.7473 55.9184 16.7473 57.4176V61.4364Z" fill="white"/>
</g>
<path d="M6.96543 81.7073C6.96543 81.7547 6.95063 81.7961 6.92103 81.8317C6.89143 81.8613 6.8559 81.8761 6.81446 81.8761H6.72565C6.6842 81.8761 6.64868 81.8613 6.61908 81.8317C6.58947 81.7961 6.57467 81.7547 6.57467 81.7073V75.6683C6.57467 75.6269 6.55395 75.6062 6.51251 75.6062C6.47698 75.6062 6.44738 75.6328 6.4237 75.6861L4.8873 78.9276C4.78665 79.1407 4.63568 79.2473 4.43438 79.2473C4.23308 79.2473 4.0821 79.1407 3.98145 78.9276L2.44506 75.6861C2.42137 75.6328 2.39177 75.6062 2.35625 75.6062C2.3148 75.6062 2.29408 75.6269 2.29408 75.6683V81.7073C2.29408 81.7547 2.27928 81.7961 2.24968 81.8317C2.22007 81.8613 2.18455 81.8761 2.1431 81.8761H2.0543C2.01285 81.8761 1.97733 81.8613 1.94772 81.8317C1.91812 81.7961 1.90332 81.7547 1.90332 81.7073V75.6683C1.90332 75.3782 2.0543 75.2332 2.35625 75.2332C2.53978 75.2332 2.67596 75.3249 2.76477 75.5085L4.31893 78.7678C4.35445 78.8447 4.39293 78.8832 4.43438 78.8832C4.47582 78.8832 4.5143 78.8447 4.54983 78.7678L6.10399 75.5085C6.19279 75.3249 6.32897 75.2332 6.51251 75.2332C6.81446 75.2332 6.96543 75.3782 6.96543 75.6683V81.7073Z" fill="white"/>
<path d="M12.1738 79.4161C12.1738 79.4634 12.156 79.5049 12.1205 79.5404C12.0909 79.57 12.0524 79.5848 12.0051 79.5848H9.00332V79.7713C9.00332 80.4581 9.14542 80.9317 9.42961 81.1922C9.71379 81.4527 10.1075 81.583 10.6108 81.583C10.9956 81.583 11.4337 81.5327 11.9251 81.432C11.9311 81.432 11.9399 81.432 11.9518 81.432C11.9636 81.4261 11.9725 81.4231 11.9784 81.4231C12.0672 81.4231 12.1116 81.4646 12.1116 81.5475V81.6096C12.1116 81.6984 12.0554 81.7547 11.9429 81.7784C11.4574 81.879 11.0134 81.9294 10.6108 81.9294C9.27863 81.9294 8.61256 81.21 8.61256 79.7713V79.1852C8.61256 78.5516 8.76946 78.0395 9.08325 77.6488C9.39704 77.258 9.83813 77.0626 10.4065 77.0626C10.9986 77.0626 11.4396 77.2521 11.7298 77.631C12.0258 78.004 12.1738 78.5191 12.1738 79.1763V79.4161ZM11.783 79.2296V79.1763C11.783 78.5961 11.6735 78.1579 11.4545 77.8619C11.2413 77.5599 10.892 77.409 10.4065 77.409C9.93286 77.409 9.58058 77.5688 9.34968 77.8885C9.11877 78.2023 9.00332 78.6345 9.00332 79.1852V79.2296H11.783Z" fill="white"/>
<path d="M15.7312 79.1852V77.2758C15.7312 77.2284 15.7489 77.1899 15.7844 77.1603C15.82 77.1248 15.8585 77.107 15.8999 77.107H15.9532C15.9946 77.107 16.0331 77.1248 16.0686 77.1603C16.1042 77.1899 16.1219 77.2284 16.1219 77.2758V79.1852L18.3066 77.1425C18.3658 77.0893 18.4369 77.0626 18.5198 77.0626C18.573 77.0626 18.6145 77.0804 18.6441 77.1159C18.6796 77.1455 18.6974 77.181 18.6974 77.2225C18.6974 77.2758 18.6767 77.3202 18.6352 77.3557L16.4594 79.345L18.6441 81.654C18.6855 81.7073 18.7063 81.7517 18.7063 81.7873C18.7063 81.882 18.65 81.9294 18.5375 81.9294C18.431 81.9294 18.3421 81.8938 18.2711 81.8228L16.1219 79.5226V81.7073C16.1219 81.7488 16.1042 81.7873 16.0686 81.8228C16.0331 81.8583 15.9946 81.8761 15.9532 81.8761H15.8999C15.8585 81.8761 15.82 81.8583 15.7844 81.8228C15.7489 81.7873 15.7312 81.7488 15.7312 81.7073V79.5226L13.582 81.8228C13.5109 81.8938 13.4221 81.9294 13.3156 81.9294C13.2031 81.9294 13.1468 81.882 13.1468 81.7873C13.1468 81.7517 13.1675 81.7073 13.209 81.654L15.3937 79.345L13.2179 77.3557C13.1764 77.3202 13.1557 77.2758 13.1557 77.2225C13.1557 77.181 13.1705 77.1455 13.2001 77.1159C13.2356 77.0804 13.28 77.0626 13.3333 77.0626C13.4162 77.0626 13.4873 77.0893 13.5465 77.1425L15.7312 79.1852Z" fill="white"/>
<path d="M19.9416 81.5208H20.2169L21.4602 77.4267C21.5491 77.1366 21.7415 76.9916 22.0375 76.9916C22.3335 76.9916 22.523 77.1337 22.6059 77.4179L23.8492 81.5208H24.1423C24.1896 81.5208 24.2311 81.5386 24.2666 81.5741C24.3021 81.6096 24.3199 81.6511 24.3199 81.6984V82.9063C24.3199 82.9536 24.3021 82.9951 24.2666 83.0306C24.2311 83.0661 24.1896 83.0839 24.1423 83.0839H24.1068C24.0594 83.0839 24.0179 83.0661 23.9824 83.0306C23.9469 82.9951 23.9291 82.9536 23.9291 82.9063V81.8761H20.1547V82.9063C20.1547 82.9536 20.137 82.9951 20.1015 83.0306C20.0659 83.0661 20.0245 83.0839 19.9771 83.0839H19.9416C19.8942 83.0839 19.8528 83.0661 19.8173 83.0306C19.7818 82.9951 19.764 82.9536 19.764 82.9063V81.6984C19.764 81.6511 19.7818 81.6096 19.8173 81.5741C19.8528 81.5386 19.8942 81.5208 19.9416 81.5208ZM21.8332 77.5155L20.6343 81.5208H23.4407L22.2418 77.5244C22.2062 77.406 22.1382 77.3468 22.0375 77.3468C21.9309 77.3468 21.8628 77.4031 21.8332 77.5155Z" fill="white"/>
<path d="M28.5339 77.258C28.5339 77.2876 28.531 77.3113 28.5251 77.329L27.0686 82.3734C26.9324 82.847 26.7607 83.1697 26.5535 83.3414C26.3522 83.519 26.0443 83.6078 25.6299 83.6078C25.476 83.6078 25.2924 83.5901 25.0793 83.5546C24.9609 83.5368 24.9017 83.4954 24.9017 83.4302V83.3325C24.9017 83.2496 24.9461 83.2082 25.0349 83.2082H25.0882C25.3546 83.2437 25.547 83.2615 25.6654 83.2615C25.9851 83.2615 26.2131 83.1964 26.3492 83.0661C26.4913 82.9418 26.6157 82.6842 26.7222 82.2935L26.8377 81.8761H26.7134C26.5653 81.8761 26.4529 81.8435 26.3759 81.7784C26.2989 81.7133 26.2308 81.58 26.1716 81.3787L24.9727 77.3202C24.9668 77.3083 24.9638 77.2876 24.9638 77.258C24.9638 77.1573 25.0142 77.107 25.1148 77.107H25.1947C25.2658 77.107 25.3131 77.1485 25.3368 77.2314L26.5357 81.3166C26.5713 81.4468 26.6394 81.5119 26.74 81.5119H26.9443L28.1609 77.2225C28.1846 77.1455 28.2379 77.107 28.3208 77.107H28.4007C28.4895 77.107 28.5339 77.1573 28.5339 77.258Z" fill="white"/>
<path d="M32.9418 79.5137H30.3397V81.7073C30.3397 81.7488 30.3219 81.7873 30.2864 81.8228C30.2509 81.8583 30.2124 81.8761 30.1709 81.8761H30.1177C30.0762 81.8761 30.0377 81.8583 30.0022 81.8228C29.9667 81.7873 29.9489 81.7488 29.9489 81.7073V77.258C29.9489 77.2106 29.9667 77.1722 30.0022 77.1425C30.0377 77.107 30.0762 77.0893 30.1177 77.0893H30.1709C30.2124 77.0893 30.2509 77.107 30.2864 77.1425C30.3219 77.1722 30.3397 77.2106 30.3397 77.258V79.1496H32.9418V77.258C32.9418 77.2106 32.9566 77.1722 32.9862 77.1425C33.0217 77.107 33.0632 77.0893 33.1105 77.0893H33.1638C33.2112 77.0893 33.2497 77.107 33.2793 77.1425C33.3148 77.1722 33.3325 77.2106 33.3325 77.258V81.7073C33.3325 81.7488 33.3148 81.7873 33.2793 81.8228C33.2497 81.8583 33.2112 81.8761 33.1638 81.8761H33.1105C33.0632 81.8761 33.0217 81.8583 32.9862 81.8228C32.9566 81.7873 32.9418 81.7488 32.9418 81.7073V79.5137Z" fill="white"/>
<path d="M38.1148 81.6984C38.1148 81.7458 38.097 81.7873 38.0615 81.8228C38.026 81.8583 37.9845 81.8761 37.9372 81.8761H37.8927C37.8454 81.8761 37.8039 81.8583 37.7684 81.8228C37.7329 81.7873 37.7151 81.7458 37.7151 81.6984V81.4764C37.1645 81.7784 36.6613 81.9294 36.2054 81.9294C35.8205 81.9294 35.4979 81.8198 35.2374 81.6008C34.9769 81.3758 34.8466 81.0087 34.8466 80.4995V80.3841C34.8466 79.9163 35.0153 79.573 35.3528 79.3539C35.6903 79.1289 36.2527 79.0164 37.0402 79.0164H37.724V78.6967C37.724 78.2231 37.6411 77.8915 37.4753 77.702C37.3155 77.5067 37.0254 77.409 36.605 77.409C36.2675 77.409 35.8472 77.4356 35.3439 77.4889H35.3084C35.1959 77.4889 35.1397 77.4445 35.1397 77.3557V77.3024C35.1397 77.2136 35.2078 77.1603 35.3439 77.1425C35.7939 77.0893 36.2143 77.0626 36.605 77.0626C37.1675 77.0626 37.5582 77.2047 37.7773 77.4889C38.0023 77.7672 38.1148 78.1698 38.1148 78.6967V81.6984ZM37.724 81.1301V79.3628H37.0402C36.3712 79.3628 35.9034 79.4397 35.637 79.5937C35.3706 79.7417 35.2374 80.0052 35.2374 80.3841V80.4995C35.2374 81.2218 35.56 81.583 36.2054 81.583C36.6553 81.583 37.1616 81.432 37.724 81.1301Z" fill="white"/>
<path d="M43.1705 79.8068C43.1705 81.2218 42.5903 81.9294 41.4298 81.9294C41.0036 81.9294 40.5921 81.8849 40.1954 81.7961V83.4391C40.1954 83.4865 40.1806 83.525 40.151 83.5546C40.1214 83.5901 40.0859 83.6078 40.0444 83.6078H39.9556C39.9142 83.6078 39.8786 83.5901 39.849 83.5546C39.8194 83.525 39.8046 83.4865 39.8046 83.4391V77.4001C39.8046 77.3113 39.849 77.255 39.9379 77.2314C40.4885 77.1189 40.9858 77.0626 41.4298 77.0626C42.0219 77.0626 42.46 77.255 42.7442 77.6399C43.0284 78.0247 43.1705 78.5516 43.1705 79.2207V79.8068ZM42.7797 79.8068V79.2207C42.7797 78.6227 42.6732 78.1727 42.46 77.8708C42.2528 77.5629 41.9094 77.409 41.4298 77.409C41.0687 77.409 40.6572 77.4475 40.1954 77.5244V81.4675C40.5625 81.5445 40.974 81.583 41.4298 81.583C41.9094 81.583 42.2528 81.4379 42.46 81.1478C42.6732 80.8518 42.7797 80.4048 42.7797 79.8068Z" fill="white"/>
<path d="M48.2495 79.8068C48.2495 80.4877 48.0926 81.0117 47.7789 81.3787C47.471 81.7458 47.0181 81.9294 46.4201 81.9294C45.8221 81.9294 45.3662 81.7458 45.0524 81.3787C44.7445 81.0117 44.5906 80.4877 44.5906 79.8068V79.1852C44.5906 78.5043 44.7445 77.9803 45.0524 77.6132C45.3662 77.2462 45.8221 77.0626 46.4201 77.0626C47.0181 77.0626 47.471 77.2462 47.7789 77.6132C48.0926 77.9803 48.2495 78.5043 48.2495 79.1852V79.8068ZM47.8588 79.8068V79.1852C47.8588 78.001 47.3792 77.409 46.4201 77.409C45.4609 77.409 44.9814 78.001 44.9814 79.1852V79.8068C44.9814 80.9909 45.4609 81.583 46.4201 81.583C47.3792 81.583 47.8588 80.9909 47.8588 79.8068Z" fill="white"/>
<path d="M49.2312 81.5208H49.5065L50.7499 77.4267C50.8387 77.1366 51.0311 76.9916 51.3271 76.9916C51.6231 76.9916 51.8126 77.1337 51.8955 77.4179L53.1388 81.5208H53.4319C53.4793 81.5208 53.5207 81.5386 53.5562 81.5741C53.5918 81.6096 53.6095 81.6511 53.6095 81.6984V82.9063C53.6095 82.9536 53.5918 82.9951 53.5562 83.0306C53.5207 83.0661 53.4793 83.0839 53.4319 83.0839H53.3964C53.349 83.0839 53.3076 83.0661 53.272 83.0306C53.2365 82.9951 53.2188 82.9536 53.2188 82.9063V81.8761H49.4444V82.9063C49.4444 82.9536 49.4266 82.9951 49.3911 83.0306C49.3556 83.0661 49.3141 83.0839 49.2668 83.0839H49.2312C49.1839 83.0839 49.1424 83.0661 49.1069 83.0306C49.0714 82.9951 49.0536 82.9536 49.0536 82.9063V81.6984C49.0536 81.6511 49.0714 81.6096 49.1069 81.5741C49.1424 81.5386 49.1839 81.5208 49.2312 81.5208ZM51.1229 77.5155L49.9239 81.5208H52.7303L51.5314 77.5244C51.4959 77.406 51.4278 77.3468 51.3271 77.3468C51.2205 77.3468 51.1525 77.4031 51.1229 77.5155Z" fill="white"/>
<path d="M57.8499 79.5137H55.2478V81.7073C55.2478 81.7488 55.2301 81.7873 55.1945 81.8228C55.159 81.8583 55.1205 81.8761 55.0791 81.8761H55.0258C54.9844 81.8761 54.9459 81.8583 54.9104 81.8228C54.8748 81.7873 54.8571 81.7488 54.8571 81.7073V77.258C54.8571 77.2106 54.8748 77.1722 54.9104 77.1425C54.9459 77.107 54.9844 77.0893 55.0258 77.0893H55.0791C55.1205 77.0893 55.159 77.107 55.1945 77.1425C55.2301 77.1722 55.2478 77.2106 55.2478 77.258V79.1496H57.8499V77.258C57.8499 77.2106 57.8647 77.1722 57.8943 77.1425C57.9299 77.107 57.9713 77.0893 58.0187 77.0893H58.072C58.1193 77.0893 58.1578 77.107 58.1874 77.1425C58.2229 77.1722 58.2407 77.2106 58.2407 77.258V81.7073C58.2407 81.7488 58.2229 81.7873 58.1874 81.8228C58.1578 81.8583 58.1193 81.8761 58.072 81.8761H58.0187C57.9713 81.8761 57.9299 81.8583 57.8943 81.8228C57.8647 81.7873 57.8499 81.7488 57.8499 81.7073V79.5137Z" fill="white"/>
<path d="M60.3142 79.2473V81.5741C60.7228 81.5919 61.0395 81.6008 61.2645 81.6008C61.8862 81.6008 62.3332 81.5179 62.6055 81.3521C62.8779 81.1804 63.014 80.8932 63.014 80.4906V80.3308C63.014 79.9282 62.8779 79.644 62.6055 79.4782C62.3332 79.3065 61.8862 79.2207 61.2645 79.2207C61.0395 79.2207 60.7228 79.2296 60.3142 79.2473ZM59.9324 81.805V77.2758C59.9324 77.1633 59.9827 77.107 60.0833 77.107H60.1633C60.2639 77.107 60.3142 77.1633 60.3142 77.2758V78.9098C60.6221 78.8921 60.9389 78.8832 61.2645 78.8832C62.6973 78.8832 63.4137 79.3657 63.4137 80.3308V80.4906C63.4137 81.4557 62.6973 81.9382 61.2645 81.9382C60.7553 81.9382 60.3498 81.9205 60.0478 81.8849C59.9709 81.879 59.9324 81.8524 59.9324 81.805ZM64.9234 81.7073C64.9234 81.7547 64.9086 81.7961 64.879 81.8317C64.8494 81.8613 64.8139 81.8761 64.7725 81.8761H64.6837C64.6422 81.8761 64.6067 81.8613 64.5771 81.8317C64.5475 81.7961 64.5327 81.7547 64.5327 81.7073V77.2758C64.5327 77.2284 64.5475 77.1899 64.5771 77.1603C64.6067 77.1248 64.6422 77.107 64.6837 77.107H64.7725C64.8139 77.107 64.8494 77.1248 64.879 77.1603C64.9086 77.1899 64.9234 77.2284 64.9234 77.2758V81.7073Z" fill="white"/>
<path d="M70.0402 79.4161C70.0402 79.4634 70.0224 79.5049 69.9869 79.5404C69.9573 79.57 69.9188 79.5848 69.8714 79.5848H66.8697V79.7713C66.8697 80.4581 67.0118 80.9317 67.296 81.1922C67.5801 81.4527 67.9739 81.583 68.4771 81.583C68.862 81.583 69.3001 81.5327 69.7915 81.432C69.7974 81.432 69.8063 81.432 69.8181 81.432C69.83 81.4261 69.8389 81.4231 69.8448 81.4231C69.9336 81.4231 69.978 81.4646 69.978 81.5475V81.6096C69.978 81.6984 69.9217 81.7547 69.8092 81.7784C69.3238 81.879 68.8797 81.9294 68.4771 81.9294C67.145 81.9294 66.4789 81.21 66.4789 79.7713V79.1852C66.4789 78.5516 66.6358 78.0395 66.9496 77.6488C67.2634 77.258 67.7045 77.0626 68.2729 77.0626C68.8649 77.0626 69.306 77.2521 69.5961 77.631C69.8921 78.004 70.0402 78.5191 70.0402 79.1763V79.4161ZM69.6494 79.2296V79.1763C69.6494 78.5961 69.5399 78.1579 69.3208 77.8619C69.1077 77.5599 68.7583 77.409 68.2729 77.409C67.7992 77.409 67.4469 77.5688 67.216 77.8885C66.9851 78.2023 66.8697 78.6345 66.8697 79.1852V79.2296H69.6494Z" fill="white"/>
<path d="M76.0488 77.4711H74.8677C74.6723 77.4711 74.5332 77.5126 74.4503 77.5955C74.3733 77.6784 74.3348 77.8116 74.3348 77.9951V81.7073C74.3348 81.7547 74.32 81.7961 74.2904 81.8317C74.2608 81.8613 74.2253 81.8761 74.1839 81.8761H74.095C74.0536 81.8761 74.0181 81.8613 73.9885 81.8317C73.9589 81.7961 73.9441 81.7547 73.9441 81.7073V77.9951C73.9441 77.6458 74.0299 77.4119 74.2016 77.2935C74.3733 77.1692 74.5953 77.107 74.8677 77.107H76.0488C76.1613 77.107 76.2176 77.1573 76.2176 77.258V77.3202C76.2176 77.4208 76.1613 77.4711 76.0488 77.4711Z" fill="white"/>
<path d="M80.9195 79.8068C80.9195 81.2218 80.3393 81.9294 79.1789 81.9294C78.7526 81.9294 78.3411 81.8849 77.9444 81.7961V83.4391C77.9444 83.4865 77.9296 83.525 77.9 83.5546C77.8704 83.5901 77.8349 83.6078 77.7934 83.6078H77.7046C77.6632 83.6078 77.6277 83.5901 77.5981 83.5546C77.5685 83.525 77.5537 83.4865 77.5537 83.4391V77.4001C77.5537 77.3113 77.5981 77.255 77.6869 77.2314C78.2375 77.1189 78.7348 77.0626 79.1789 77.0626C79.7709 77.0626 80.2091 77.255 80.4932 77.6399C80.7774 78.0247 80.9195 78.5516 80.9195 79.2207V79.8068ZM80.5288 79.8068V79.2207C80.5288 78.6227 80.4222 78.1727 80.2091 77.8708C80.0018 77.5629 79.6584 77.409 79.1789 77.409C78.8177 77.409 78.4062 77.4475 77.9444 77.5244V81.4675C78.3115 81.5445 78.723 81.583 79.1789 81.583C79.6584 81.583 80.0018 81.4379 80.2091 81.1478C80.4222 80.8518 80.5288 80.4048 80.5288 79.8068Z" fill="white"/>
<path d="M85.5521 77.258C85.5521 77.2876 85.5491 77.3113 85.5432 77.329L84.0868 82.3734C83.9506 82.847 83.7789 83.1697 83.5717 83.3414C83.3704 83.519 83.0625 83.6078 82.648 83.6078C82.4941 83.6078 82.3106 83.5901 82.0974 83.5546C81.979 83.5368 81.9198 83.4954 81.9198 83.4302V83.3325C81.9198 83.2496 81.9642 83.2082 82.053 83.2082H82.1063C82.3727 83.2437 82.5652 83.2615 82.6836 83.2615C83.0033 83.2615 83.2312 83.1964 83.3674 83.0661C83.5095 82.9418 83.6338 82.6842 83.7404 82.2935L83.8559 81.8761H83.7315C83.5835 81.8761 83.471 81.8435 83.394 81.7784C83.3171 81.7133 83.249 81.58 83.1898 81.3787L81.9909 77.3202C81.9849 77.3083 81.982 77.2876 81.982 77.258C81.982 77.1573 82.0323 77.107 82.133 77.107H82.2129C82.2839 77.107 82.3313 77.1485 82.355 77.2314L83.5539 81.3166C83.5894 81.4468 83.6575 81.5119 83.7582 81.5119H83.9624L85.1791 77.2225C85.2028 77.1455 85.2561 77.107 85.339 77.107H85.4189C85.5077 77.107 85.5521 77.1573 85.5521 77.258Z" fill="white"/>
<path d="M87.0026 79.2207H88.4679C89.2021 79.2207 89.5692 78.9039 89.5692 78.2704V78.2083C89.5692 77.8767 89.4656 77.6488 89.2583 77.5244C89.0511 77.3942 88.6841 77.329 88.1571 77.329C87.8256 77.329 87.423 77.3586 86.9493 77.4179C86.8427 77.4297 86.7895 77.3912 86.7895 77.3024V77.258C86.7895 77.2047 86.7983 77.1692 86.8161 77.1514C86.8398 77.1277 86.8901 77.11 86.9671 77.0981C87.3815 77.0389 87.7812 77.0093 88.166 77.0093C88.7521 77.0093 89.1962 77.0981 89.4981 77.2758C89.8001 77.4534 89.9511 77.7642 89.9511 78.2083V78.2704C89.9511 78.7796 89.735 79.1496 89.3028 79.3805C89.7409 79.6114 89.9599 79.9844 89.9599 80.4995V80.5706C89.9599 81.4823 89.362 81.9382 88.166 81.9382C87.7812 81.9382 87.3815 81.9086 86.9671 81.8494C86.8901 81.8376 86.8398 81.8228 86.8161 81.805C86.7983 81.7813 86.7895 81.7429 86.7895 81.6896V81.6452C86.7895 81.5564 86.8427 81.5179 86.9493 81.5297C87.423 81.5889 87.8256 81.6185 88.1571 81.6185H88.166C88.6693 81.6185 89.0275 81.5416 89.2406 81.3876C89.4597 81.2278 89.5692 80.9554 89.5692 80.5706V80.4995C89.5692 79.8601 89.2021 79.5404 88.4679 79.5404H87.0026C86.8901 79.5404 86.8339 79.493 86.8339 79.3983V79.3717C86.8339 79.271 86.8901 79.2207 87.0026 79.2207Z" fill="white"/>
<path d="M94.9957 79.8068C94.9957 80.4877 94.8388 81.0117 94.525 81.3787C94.2171 81.7458 93.7642 81.9294 93.1662 81.9294C92.5682 81.9294 92.1124 81.7458 91.7986 81.3787C91.4907 81.0117 91.3368 80.4877 91.3368 79.8068V79.1852C91.3368 78.5043 91.4907 77.9803 91.7986 77.6132C92.1124 77.2462 92.5682 77.0626 93.1662 77.0626C93.7642 77.0626 94.2171 77.2462 94.525 77.6132C94.8388 77.9803 94.9957 78.5043 94.9957 79.1852V79.8068ZM94.6049 79.8068V79.1852C94.6049 78.001 94.1254 77.409 93.1662 77.409C92.2071 77.409 91.7275 78.001 91.7275 79.1852V79.8068C91.7275 80.9909 92.2071 81.583 93.1662 81.583C94.1254 81.583 94.6049 80.9909 94.6049 79.8068Z" fill="white"/>
<path d="M99.5468 81.7073V77.9951C99.5468 77.8116 99.5054 77.6784 99.4225 77.5955C99.3455 77.5126 99.2064 77.4711 99.0051 77.4711H97.4775C97.2822 77.4711 97.143 77.5126 97.0602 77.5955C96.9832 77.6784 96.9447 77.8116 96.9447 77.9951V81.7073C96.9447 81.7547 96.9299 81.7961 96.9003 81.8317C96.8707 81.8613 96.8352 81.8761 96.7937 81.8761H96.7049C96.6635 81.8761 96.6279 81.8613 96.5983 81.8317C96.5687 81.7961 96.5539 81.7547 96.5539 81.7073V77.9951C96.5539 77.6458 96.6398 77.4119 96.8115 77.2935C96.9832 77.1692 97.2052 77.107 97.4775 77.107H98.9962C99.6238 77.107 99.9376 77.4031 99.9376 77.9951V81.7073C99.9376 81.8198 99.8872 81.8761 99.7866 81.8761H99.6978C99.5971 81.8761 99.5468 81.8198 99.5468 81.7073Z" fill="white"/>
<path d="M105.057 79.4161C105.057 79.4634 105.039 79.5049 105.004 79.5404C104.974 79.57 104.936 79.5848 104.889 79.5848H101.887V79.7713C101.887 80.4581 102.029 80.9317 102.313 81.1922C102.597 81.4527 102.991 81.583 103.494 81.583C103.879 81.583 104.317 81.5327 104.809 81.432C104.815 81.432 104.823 81.432 104.835 81.432C104.847 81.4261 104.856 81.4231 104.862 81.4231C104.951 81.4231 104.995 81.4646 104.995 81.5475V81.6096C104.995 81.6984 104.939 81.7547 104.826 81.7784C104.341 81.879 103.897 81.9294 103.494 81.9294C102.162 81.9294 101.496 81.21 101.496 79.7713V79.1852C101.496 78.5516 101.653 78.0395 101.967 77.6488C102.281 77.258 102.722 77.0626 103.29 77.0626C103.882 77.0626 104.323 77.2521 104.613 77.631C104.909 78.004 105.057 78.5191 105.057 79.1763V79.4161ZM104.666 79.2296V79.1763C104.666 78.5961 104.557 78.1579 104.338 77.8619C104.125 77.5599 103.775 77.409 103.29 77.409C102.816 77.409 102.464 77.5688 102.233 77.8885C102.002 78.2023 101.887 78.6345 101.887 79.1852V79.2296H104.666Z" fill="white"/>
<path d="M109.975 79.8068C109.975 81.2218 109.395 81.9294 108.234 81.9294C107.808 81.9294 107.397 81.8849 107 81.7961V83.4391C107 83.4865 106.985 83.525 106.955 83.5546C106.926 83.5901 106.89 83.6078 106.849 83.6078H106.76C106.719 83.6078 106.683 83.5901 106.654 83.5546C106.624 83.525 106.609 83.4865 106.609 83.4391V77.4001C106.609 77.3113 106.654 77.255 106.742 77.2314C107.293 77.1189 107.79 77.0626 108.234 77.0626C108.826 77.0626 109.265 77.255 109.549 77.6399C109.833 78.0247 109.975 78.5516 109.975 79.2207V79.8068ZM109.584 79.8068V79.2207C109.584 78.6227 109.478 78.1727 109.265 77.8708C109.057 77.5629 108.714 77.409 108.234 77.409C107.873 77.409 107.462 77.4475 107 77.5244V81.4675C107.367 81.5445 107.778 81.583 108.234 81.583C108.714 81.583 109.057 81.4379 109.265 81.1478C109.478 80.8518 109.584 80.4048 109.584 79.8068Z" fill="white"/>
<path d="M114.956 79.4161C114.956 79.4634 114.939 79.5049 114.903 79.5404C114.873 79.57 114.835 79.5848 114.788 79.5848H111.786V79.7713C111.786 80.4581 111.928 80.9317 112.212 81.1922C112.496 81.4527 112.89 81.583 113.393 81.583C113.778 81.583 114.216 81.5327 114.708 81.432C114.714 81.432 114.722 81.432 114.734 81.432C114.746 81.4261 114.755 81.4231 114.761 81.4231C114.85 81.4231 114.894 81.4646 114.894 81.5475V81.6096C114.894 81.6984 114.838 81.7547 114.725 81.7784C114.24 81.879 113.796 81.9294 113.393 81.9294C112.061 81.9294 111.395 81.21 111.395 79.7713V79.1852C111.395 78.5516 111.552 78.0395 111.866 77.6488C112.18 77.258 112.621 77.0626 113.189 77.0626C113.781 77.0626 114.222 77.2521 114.512 77.631C114.808 78.004 114.956 78.5191 114.956 79.1763V79.4161ZM114.566 79.2296V79.1763C114.566 78.5961 114.456 78.1579 114.237 77.8619C114.024 77.5599 113.675 77.409 113.189 77.409C112.715 77.409 112.363 77.5688 112.132 77.8885C111.901 78.2023 111.786 78.6345 111.786 79.1852V79.2296H114.566Z" fill="white"/>
<path d="M119.927 78.3148C119.927 78.5457 119.868 78.7618 119.75 78.9631C119.631 79.1644 119.457 79.3095 119.226 79.3983C119.735 79.5878 119.99 79.9519 119.99 80.4906V80.5528C119.99 81.4764 119.273 81.9382 117.84 81.9382C117.331 81.9382 116.926 81.9205 116.624 81.8849C116.547 81.879 116.508 81.8524 116.508 81.805V77.1958C116.508 77.1544 116.541 77.1277 116.606 77.1159C116.89 77.0804 117.302 77.0626 117.84 77.0626C118.142 77.0626 118.4 77.0774 118.613 77.107C118.832 77.1307 119.048 77.181 119.261 77.258C119.48 77.335 119.646 77.4593 119.759 77.631C119.871 77.7968 119.927 78.007 119.927 78.2615V78.3148ZM119.59 80.5528V80.4906C119.59 80.3189 119.557 80.1739 119.492 80.0555C119.427 79.9311 119.353 79.8394 119.27 79.7802C119.193 79.721 119.078 79.6766 118.924 79.647C118.776 79.6114 118.654 79.5937 118.56 79.5937C118.465 79.5878 118.332 79.5848 118.16 79.5848H116.89V81.5741C117.299 81.5919 117.615 81.6008 117.84 81.6008C118.456 81.6008 118.9 81.5208 119.172 81.361C119.451 81.1952 119.59 80.9258 119.59 80.5528ZM119.545 78.3148V78.2615C119.545 77.9181 119.403 77.6902 119.119 77.5777C118.841 77.4652 118.415 77.409 117.84 77.409C117.651 77.409 117.334 77.4179 116.89 77.4356V79.2296H118.16C118.326 79.2296 118.456 79.2266 118.551 79.2207C118.651 79.2148 118.773 79.197 118.915 79.1674C119.057 79.1319 119.167 79.0845 119.244 79.0253C119.326 78.9661 119.397 78.8773 119.457 78.7589C119.516 78.6345 119.545 78.4865 119.545 78.3148Z" fill="white"/>
<path d="M125.066 79.8068C125.066 80.4877 124.909 81.0117 124.595 81.3787C124.287 81.7458 123.834 81.9294 123.236 81.9294C122.638 81.9294 122.183 81.7458 121.869 81.3787C121.561 81.0117 121.407 80.4877 121.407 79.8068V79.1852C121.407 78.5043 121.561 77.9803 121.869 77.6132C122.183 77.2462 122.638 77.0626 123.236 77.0626C123.834 77.0626 124.287 77.2462 124.595 77.6132C124.909 77.9803 125.066 78.5043 125.066 79.1852V79.8068ZM124.675 79.8068V79.1852C124.675 78.001 124.196 77.409 123.236 77.409C122.277 77.409 121.798 78.001 121.798 79.1852V79.8068C121.798 80.9909 122.277 81.583 123.236 81.583C124.196 81.583 124.675 80.9909 124.675 79.8068Z" fill="white"/>
<path d="M126.66 79.2207H128.125C128.859 79.2207 129.226 78.9039 129.226 78.2704V78.2083C129.226 77.8767 129.123 77.6488 128.915 77.5244C128.708 77.3942 128.341 77.329 127.814 77.329C127.483 77.329 127.08 77.3586 126.606 77.4179C126.5 77.4297 126.446 77.3912 126.446 77.3024V77.258C126.446 77.2047 126.455 77.1692 126.473 77.1514C126.497 77.1277 126.547 77.11 126.624 77.0981C127.039 77.0389 127.438 77.0093 127.823 77.0093C128.409 77.0093 128.853 77.0981 129.155 77.2758C129.457 77.4534 129.608 77.7642 129.608 78.2083V78.2704C129.608 78.7796 129.392 79.1496 128.96 79.3805C129.398 79.6114 129.617 79.9844 129.617 80.4995V80.5706C129.617 81.4823 129.019 81.9382 127.823 81.9382C127.438 81.9382 127.039 81.9086 126.624 81.8494C126.547 81.8376 126.497 81.8228 126.473 81.805C126.455 81.7813 126.446 81.7429 126.446 81.6896V81.6452C126.446 81.5564 126.5 81.5179 126.606 81.5297C127.08 81.5889 127.483 81.6185 127.814 81.6185H127.823C128.326 81.6185 128.684 81.5416 128.898 81.3876C129.117 81.2278 129.226 80.9554 129.226 80.5706V80.4995C129.226 79.8601 128.859 79.5404 128.125 79.5404H126.66C126.547 79.5404 126.491 79.493 126.491 79.3983V79.3717C126.491 79.271 126.547 79.2207 126.66 79.2207Z" fill="white"/>
<path d="M134.102 81.7873C134.102 81.882 134.046 81.9294 133.933 81.9294C133.827 81.9294 133.738 81.8938 133.667 81.8228L131.518 79.5226V81.7073C131.518 81.7488 131.5 81.7873 131.464 81.8228C131.429 81.8583 131.39 81.8761 131.349 81.8761H131.296C131.254 81.8761 131.216 81.8583 131.18 81.8228C131.145 81.7873 131.127 81.7488 131.127 81.7073V77.2758C131.127 77.2284 131.145 77.1899 131.18 77.1603C131.216 77.1248 131.254 77.107 131.296 77.107H131.349C131.39 77.107 131.429 77.1248 131.464 77.1603C131.5 77.1899 131.518 77.2284 131.518 77.2758V79.1852L133.702 77.1425C133.762 77.0893 133.833 77.0626 133.916 77.0626C133.969 77.0626 134.01 77.0804 134.04 77.1159C134.075 77.1455 134.093 77.181 134.093 77.2225C134.093 77.2758 134.073 77.3202 134.031 77.3557L131.855 79.345L134.04 81.654C134.081 81.7073 134.102 81.7517 134.102 81.7873Z" fill="white"/>
<path d="M136.006 81.3432L138.11 77.4356C138.229 77.2166 138.377 77.107 138.554 77.107C138.785 77.107 138.901 77.2846 138.901 77.6399V81.7073C138.901 81.8198 138.845 81.8761 138.732 81.8761H138.679C138.566 81.8761 138.51 81.8198 138.51 81.7073V77.6399C138.51 77.6103 138.498 77.5955 138.474 77.5955C138.457 77.5955 138.439 77.6103 138.421 77.6399L136.325 81.5475C136.254 81.6836 136.186 81.7725 136.121 81.8139C136.062 81.8553 135.976 81.8761 135.864 81.8761C135.633 81.8761 135.517 81.6984 135.517 81.3432V77.2758C135.517 77.1633 135.576 77.107 135.695 77.107H135.73C135.849 77.107 135.908 77.1633 135.908 77.2758V81.3432C135.908 81.3728 135.92 81.3876 135.943 81.3876C135.967 81.3876 135.988 81.3728 136.006 81.3432Z" fill="white"/>
<defs>
<clipPath id="clip0_9011_242">
<rect width="138.494" height="18.7219" fill="white" transform="translate(0.872559 50.1929)"/>
</clipPath>
</defs>
</svg>
