<svg width="32" height="21" viewBox="0 0 32 21" fill="none" xmlns="http://www.w3.org/2000/svg">
<path d="M9.30744 3.05176e-05C10.2311 3.05176e-05 11.0837 0.0710797 11.8652 0.284227C12.6468 0.426326 13.2862 0.710522 13.8546 1.06577C14.423 1.42101 14.8493 1.91836 15.1335 2.5578C15.4177 3.19724 15.5598 3.97878 15.5598 4.83137C15.5598 5.82606 15.3466 6.67865 14.8493 7.3181C14.423 7.95754 13.7125 8.52593 12.8599 8.95223C14.0677 9.30747 14.9914 9.94691 15.5598 10.7995C16.1282 11.6521 16.4834 12.7178 16.4834 13.9257C16.4834 14.9204 16.2703 15.7729 15.915 16.4834C15.5598 17.1939 14.9914 17.8334 14.3519 18.2597C13.7125 18.686 12.9309 19.0412 12.0784 19.2544C11.2258 19.4675 10.3732 19.6096 9.52059 19.6096H0V3.05176e-05H9.30744ZM8.73905 7.95754C9.52059 7.95754 10.16 7.74439 10.6574 7.38914C11.1547 7.0339 11.3679 6.39446 11.3679 5.61292C11.3679 5.18662 11.2968 4.76032 11.1547 4.47613C11.0126 4.19193 10.7995 3.97878 10.5153 3.76564C10.2311 3.62354 9.94688 3.48144 9.59164 3.41039C9.23639 3.33934 8.88115 3.33934 8.45485 3.33934H4.334V7.95754H8.73905ZM8.9522 16.3413C9.37849 16.3413 9.80479 16.2703 10.16 16.1992C10.5153 16.1282 10.8705 15.9861 11.1547 15.7729C11.4389 15.5598 11.6521 15.3467 11.8652 14.9914C12.0073 14.6362 12.1494 14.2099 12.1494 13.7125C12.1494 12.7178 11.8652 12.0073 11.2968 11.51C10.7284 11.0837 9.94688 10.8706 9.02324 10.8706H4.334V16.3413H8.9522ZM22.6647 16.2703C23.2331 16.8387 24.0857 17.1229 25.2225 17.1229C26.004 17.1229 26.7145 16.9097 27.2829 16.5545C27.8513 16.1282 28.2065 15.7019 28.3486 15.2756H31.83C31.2616 16.9808 30.409 18.1886 29.2723 18.9702C28.1355 19.6807 26.7855 20.1069 25.1514 20.1069C24.0146 20.1069 23.0199 19.8938 22.0963 19.5386C21.1727 19.1833 20.4622 18.686 19.8227 17.9755C19.1833 17.336 18.6859 16.5545 18.4017 15.6308C18.0465 14.7072 17.9044 13.7125 17.9044 12.5757C17.9044 11.51 18.0465 10.5153 18.4017 9.59167C18.757 8.66803 19.2543 7.88649 19.8938 7.176C20.5332 6.53655 21.3148 5.96816 22.1673 5.61292C23.091 5.25767 24.0146 5.04452 25.1514 5.04452C26.3592 5.04452 27.425 5.25767 28.3486 5.75501C29.2723 6.25236 29.9827 6.82075 30.5511 7.67334C31.1195 8.45488 31.5458 9.37852 31.83 10.3732C31.9721 11.3679 32.0432 12.3626 31.9721 13.4994H21.67C21.67 14.6362 22.0963 15.7019 22.6647 16.2703ZM27.1408 8.81013C26.6434 8.31278 25.8619 8.02859 24.9383 8.02859C24.2988 8.02859 23.8015 8.17068 23.3752 8.38383C22.9489 8.59698 22.6647 8.88118 22.3805 9.16537C22.0963 9.44957 21.9542 9.80482 21.8831 10.1601C21.8121 10.5153 21.741 10.7995 21.741 11.0837H28.1355C27.9934 10.018 27.6381 9.30747 27.1408 8.81013ZM20.8885 1.34996H28.846V3.26829H20.8885V1.34996Z" fill="white"/>
</svg>
