<svg width="26" height="22" viewBox="0 0 26 22" fill="none" xmlns="http://www.w3.org/2000/svg">
<path d="M1.78736 9.47096C8.76667 6.36628 13.4206 4.31948 15.7493 3.33056C22.3979 0.50702 23.7795 0.0165409 24.68 0.000172274C24.878 -0.00321715 25.3208 0.0468967 25.6077 0.284542C25.8499 0.485205 25.9165 0.756273 25.9484 0.946524C25.9803 1.13677 26.02 1.57017 25.9884 1.90881C25.6281 5.77403 24.0692 15.1539 23.276 19.483C22.9404 21.3148 22.2796 21.929 21.6399 21.9891C20.2496 22.1197 19.1938 21.051 17.8473 20.1497C15.7401 18.7395 14.5498 17.8616 12.5044 16.4854C10.1407 14.895 11.673 14.0209 13.0201 12.5923C13.3726 12.2185 19.4983 6.52955 19.6169 6.01348C19.6317 5.94894 19.6455 5.70835 19.5055 5.58131C19.3655 5.45427 19.1589 5.49771 19.0098 5.53226C18.7985 5.58124 15.4323 7.85291 8.91132 12.3473C7.95585 13.0172 7.09041 13.3436 6.31501 13.3265C5.46019 13.3076 3.81586 12.833 2.59347 12.4273C1.09416 11.9297 -0.0974648 11.6666 0.00629874 10.8215C0.0603452 10.3813 0.654034 9.93112 1.78736 9.47096Z" fill="white"/>
</svg>
