<svg width="34" height="28" viewBox="0 0 34 28" fill="none" xmlns="http://www.w3.org/2000/svg">
<path fill-rule="evenodd" clip-rule="evenodd" d="M30.4616 24.4062C32.6202 22.8417 34 20.5271 34 17.9558C34 13.2423 29.4148 9.42175 23.759 9.42175C18.1032 9.42175 13.5183 13.2423 13.5183 17.9558C13.5183 22.6691 18.1032 26.4895 23.759 26.4895C24.9277 26.4895 26.0558 26.3227 27.1017 26.0218C27.1994 25.992 27.301 25.9769 27.4031 25.977C27.5993 25.977 27.7783 26.0367 27.9465 26.1344L30.1885 27.4285C30.2511 27.4647 30.3116 27.4923 30.3858 27.4923C30.4307 27.4923 30.4751 27.4834 30.5165 27.4662C30.558 27.4491 30.5956 27.4239 30.6273 27.3921C30.659 27.3604 30.6841 27.3227 30.7012 27.2813C30.7184 27.2398 30.7271 27.1954 30.7271 27.1505C30.7271 27.0666 30.6936 26.982 30.6723 26.9014C30.6592 26.8533 30.3828 25.8229 30.2109 25.1798C30.1911 25.1079 30.175 25.0381 30.175 24.9624C30.1749 24.8536 30.2009 24.7463 30.2507 24.6495C30.3006 24.5527 30.3729 24.4693 30.4616 24.4062ZM20.345 16.5905C19.5916 16.5905 18.9802 15.9793 18.9802 15.2249C18.9802 14.4707 19.5916 13.8593 20.345 13.8593C21.0997 13.8593 21.7107 14.4707 21.7107 15.2249C21.7107 15.9792 21.0997 16.5906 20.345 16.5906V16.5905ZM27.1725 16.5906C26.4186 16.5906 25.8072 15.9792 25.8072 15.2249C25.8072 14.4707 26.4186 13.8593 27.1725 13.8593C27.9268 13.8593 28.5378 14.4707 28.5378 15.2249C28.5378 15.9792 27.9268 16.5906 27.1725 16.5906ZM12.289 1.52588e-05C18.4199 1.52588e-05 23.501 3.74142 24.4265 8.63362C24.2042 8.62223 23.9817 8.61628 23.7591 8.61579C17.5691 8.61579 12.5512 12.7977 12.5512 17.9555C12.5512 18.8255 12.697 19.667 12.9642 20.4657C12.7403 20.4757 12.5157 20.4817 12.289 20.4817C10.8867 20.4817 9.53307 20.281 8.27777 19.9203C8.16066 19.8844 8.03885 19.8661 7.91635 19.8662C7.68055 19.8662 7.46649 19.9382 7.26395 20.055L4.57363 21.6083C4.49866 21.6515 4.42556 21.6847 4.33676 21.6847C4.28296 21.6847 4.22969 21.6742 4.17998 21.6536C4.13027 21.633 4.0851 21.6029 4.04706 21.5648C4.00902 21.5268 3.97885 21.4816 3.95828 21.4319C3.93771 21.3822 3.92714 21.3289 3.92717 21.2751C3.92717 21.1737 3.96754 21.0726 3.99326 20.9756L4.54684 18.9102C4.57034 18.8233 4.59004 18.7397 4.59004 18.649C4.59015 18.5184 4.55899 18.3896 4.49917 18.2734C4.43935 18.1573 4.35261 18.0571 4.24619 17.9814C1.65513 16.1042 0 13.3267 0 10.2411C0 4.58518 5.50175 1.52588e-05 12.289 1.52588e-05ZM8.19234 8.60239C9.09775 8.60239 9.83106 7.869 9.83106 6.96367C9.83106 6.05871 9.09775 5.32531 8.19234 5.32531C7.28782 5.32531 6.55407 6.05871 6.55407 6.96367C6.55407 7.869 7.28773 8.60239 8.19234 8.60239ZM16.3855 8.60239C17.2904 8.60239 18.0242 7.869 18.0242 6.96367C18.0242 6.05871 17.2905 5.32531 16.3855 5.32531C15.4802 5.32531 14.7469 6.05871 14.7469 6.96367C14.7469 7.869 15.4802 8.60239 16.3855 8.60239Z" fill="white"/>
</svg>
