<svg width="28" height="28" viewBox="0 0 28 28" fill="none" xmlns="http://www.w3.org/2000/svg">
<path d="M23.7622 4.08652C21.1892 1.43787 17.6324 3.05176e-05 14 3.05176e-05C6.28108 3.05176e-05 0.0756757 6.28111 0.151351 13.9244C0.151351 16.346 0.832432 18.6919 1.96757 20.8108L0 28L7.34054 26.1081C9.38378 27.2433 11.6541 27.773 13.9243 27.773C21.5676 27.773 27.773 21.4919 27.773 13.8487C27.773 10.1406 26.3351 6.65949 23.7622 4.08652ZM14 25.4271C11.9568 25.4271 9.91351 24.8973 8.17297 23.8379L7.71892 23.6108L3.32973 24.746L4.46487 20.4325L4.16216 19.9784C0.832432 14.6054 2.42162 7.49192 7.87027 4.16219C13.3189 0.832463 20.3568 2.42165 23.6865 7.8703C27.0162 13.3189 25.427 20.3568 19.9784 23.6865C18.2378 24.8217 16.1189 25.4271 14 25.4271ZM20.6595 17.0271L19.827 16.6487C19.827 16.6487 18.6162 16.1189 17.8595 15.7406C17.7838 15.7406 17.7081 15.6649 17.6324 15.6649C17.4054 15.6649 17.2541 15.7406 17.1027 15.8162C17.1027 15.8162 17.027 15.8919 15.9676 17.1027C15.8919 17.2541 15.7405 17.3298 15.5892 17.3298H15.5135C15.4378 17.3298 15.2865 17.2541 15.2108 17.1784L14.8324 17.0271C14 16.6487 13.2432 16.1946 12.6378 15.5892C12.4865 15.4379 12.2595 15.2865 12.1081 15.1352C11.5784 14.6054 11.0486 14 10.6703 13.319L10.5946 13.1676C10.5189 13.0919 10.5189 13.0162 10.4432 12.8649C10.4432 12.7135 10.4432 12.5622 10.5189 12.4865C10.5189 12.4865 10.8216 12.1081 11.0486 11.8811C11.2 11.7298 11.2757 11.5027 11.427 11.3514C11.5784 11.1244 11.6541 10.8217 11.5784 10.5946C11.5027 10.2162 10.5946 8.173 10.3676 7.71895C10.2162 7.49192 10.0649 7.41625 9.83784 7.34057H9.61081C9.45946 7.34057 9.23243 7.34057 9.00541 7.34057C8.85405 7.34057 8.7027 7.41625 8.55135 7.41625L8.47568 7.49192C8.32432 7.5676 8.17297 7.71895 8.02162 7.79463C7.87027 7.94598 7.7946 8.09733 7.64324 8.24868C7.11351 8.92976 6.81081 9.76219 6.81081 10.5946C6.81081 11.2 6.96216 11.8054 7.18919 12.3352L7.26487 12.5622C7.94595 14 8.85405 15.2865 10.0649 16.4217L10.3676 16.7244C10.5946 16.9514 10.8216 17.1027 10.973 17.3298C12.5622 18.6919 14.3784 19.6757 16.4216 20.2054C16.6486 20.2811 16.9514 20.2811 17.1784 20.3568C17.4054 20.3568 17.7081 20.3568 17.9351 20.3568C18.3135 20.3568 18.7676 20.2054 19.0703 20.0541C19.2973 19.9027 19.4486 19.9027 19.6 19.7514L19.7514 19.6C19.9027 19.4487 20.0541 19.373 20.2054 19.2217C20.3568 19.0703 20.5081 18.9189 20.5838 18.7676C20.7351 18.4649 20.8108 18.0865 20.8865 17.7081C20.8865 17.5568 20.8865 17.3298 20.8865 17.1784C20.8865 17.1784 20.8108 17.1027 20.6595 17.0271Z" fill="white"/>
</svg>
