<svg width="154" height="20" viewBox="0 0 965 95" fill="none" xmlns="http://www.w3.org/2000/svg">
    <path d="M0.441406 46.6523C0.441406 40.1289 1.67188 34.0547 4.13281 28.4297C6.59375 22.7656 10.1484 17.8633 14.7969 13.7227C19.4844 9.54297 25.1875 6.26172 31.9062 3.87891C38.6641 1.49609 46.3008 0.304688 54.8164 0.304688C62.2773 0.304688 69.1133 1.06641 75.3242 2.58984C81.5742 4.07422 87.375 6.35937 92.7266 9.44531L84.1719 23.5078C82.5703 22.4531 80.7148 21.5156 78.6055 20.6953C76.5352 19.875 74.3086 19.1914 71.9258 18.6445C69.582 18.0586 67.1406 17.6094 64.6016 17.2969C62.1016 16.9844 59.6211 16.8281 57.1602 16.8281C51.2227 16.8281 45.9297 17.5703 41.2812 19.0547C36.6328 20.5 32.707 22.5508 29.5039 25.207C26.3398 27.8242 23.918 30.9687 22.2383 34.6406C20.5977 38.2734 19.7773 42.2773 19.7773 46.6523C19.7773 51.1836 20.6367 55.3438 22.3555 59.1328C24.0742 62.9219 26.5547 66.2031 29.7969 68.9766C33.0781 71.7109 37.0625 73.8594 41.75 75.4219C46.4766 76.9453 51.8086 77.707 57.7461 77.707C60.4414 77.707 63.1172 77.5117 65.7734 77.1211C68.4297 76.7305 70.9883 76.2031 73.4492 75.5391C75.9492 74.8359 78.3516 74.0156 80.6562 73.0781C82.9609 72.1016 85.1094 71.0469 87.1016 69.9141L95.6562 83.9766C90.6562 87.1797 84.875 89.6992 78.3125 91.5352C71.75 93.332 64.7773 94.2305 57.3945 94.2305C47.9805 94.2305 39.7188 93.0195 32.6094 90.5977C25.5 88.1367 19.5625 84.7773 14.7969 80.5195C10.0312 76.2227 6.4375 71.1836 4.01562 65.4023C1.63281 59.582 0.441406 53.332 0.441406 46.6523ZM110.773 46.9453C110.773 40.0312 112.043 33.7031 114.582 27.9609C117.121 22.2188 120.676 17.2969 125.246 13.1953C129.855 9.05469 135.363 5.85156 141.77 3.58594C148.215 1.32031 155.344 0.1875 163.156 0.1875C170.93 0.1875 178.039 1.32031 184.484 3.58594C190.93 5.85156 196.438 9.05469 201.008 13.1953C205.617 17.2969 209.191 22.2188 211.73 27.9609C214.27 33.7031 215.539 40.0312 215.539 46.9453C215.539 53.8984 214.27 60.2852 211.73 66.1055C209.191 71.8867 205.617 76.8672 201.008 81.0469C196.438 85.2266 190.93 88.4883 184.484 90.832C178.039 93.1367 170.93 94.2891 163.156 94.2891C155.344 94.2891 148.215 93.1367 141.77 90.832C135.363 88.4883 129.855 85.2266 125.246 81.0469C120.676 76.8672 117.121 71.8867 114.582 66.1055C112.043 60.2852 110.773 53.8984 110.773 46.9453ZM129.348 46.9453C129.348 51.6719 130.188 55.9297 131.867 59.7188C133.586 63.5078 135.949 66.75 138.957 69.4453C142.004 72.1016 145.578 74.1523 149.68 75.5977C153.82 77.043 158.312 77.7656 163.156 77.7656C168 77.7656 172.473 77.043 176.574 75.5977C180.715 74.1523 184.289 72.1016 187.297 69.4453C190.305 66.75 192.668 63.5078 194.387 59.7188C196.105 55.9297 196.965 51.6719 196.965 46.9453C196.965 42.2188 196.105 37.9805 194.387 34.2305C192.668 30.4805 190.305 27.3164 187.297 24.7383C184.289 22.1211 180.715 20.1289 176.574 18.7617C172.473 17.3945 168 16.7109 163.156 16.7109C158.312 16.7109 153.82 17.3945 149.68 18.7617C145.578 20.1289 142.004 22.1211 138.957 24.7383C135.949 27.3164 133.586 30.4805 131.867 34.2305C130.188 37.9805 129.348 42.2188 129.348 46.9453ZM236.164 1.41797H269.738C279.543 1.41797 288.059 2.47266 295.285 4.58203C302.512 6.69141 308.488 9.71875 313.215 13.6641C317.98 17.5703 321.516 22.3359 323.82 27.9609C326.164 33.5469 327.336 39.8359 327.336 46.8281C327.336 53.4688 326.184 59.6211 323.879 65.2852C321.574 70.9102 318.059 75.793 313.332 79.9336C308.605 84.0352 302.629 87.2578 295.402 89.6016C288.176 91.9062 279.66 93.0586 269.855 93.0586L236.164 93V1.41797ZM274.309 76.9453C279.855 76.9453 284.719 76.2422 288.898 74.8359C293.078 73.3906 296.555 71.3594 299.328 68.7422C302.141 66.125 304.25 62.9609 305.656 59.25C307.062 55.5391 307.766 51.3984 307.766 46.8281C307.766 42.3359 307.062 38.293 305.656 34.6992C304.25 31.0664 302.141 28 299.328 25.5C296.555 22.9609 293.078 21.0078 288.898 19.6406C284.719 18.2734 279.855 17.5898 274.309 17.5898H254.738V76.9453H274.309ZM345.969 1.41797H423.957V17.707H364.543V35.9883H417.16V51.2812H364.543V76.7695H425.188V93H345.969V1.41797ZM445.812 1.41797H527.727V17.707H464.387V41.6719H518.176V56.9648H464.387V93H445.812V1.41797ZM540.266 46.9453C540.266 40.0312 541.535 33.7031 544.074 27.9609C546.613 22.2188 550.168 17.2969 554.738 13.1953C559.348 9.05469 564.855 5.85156 571.262 3.58594C577.707 1.32031 584.836 0.1875 592.648 0.1875C600.422 0.1875 607.531 1.32031 613.977 3.58594C620.422 5.85156 625.93 9.05469 630.5 13.1953C635.109 17.2969 638.684 22.2188 641.223 27.9609C643.762 33.7031 645.031 40.0312 645.031 46.9453C645.031 53.8984 643.762 60.2852 641.223 66.1055C638.684 71.8867 635.109 76.8672 630.5 81.0469C625.93 85.2266 620.422 88.4883 613.977 90.832C607.531 93.1367 600.422 94.2891 592.648 94.2891C584.836 94.2891 577.707 93.1367 571.262 90.832C564.855 88.4883 559.348 85.2266 554.738 81.0469C550.168 76.8672 546.613 71.8867 544.074 66.1055C541.535 60.2852 540.266 53.8984 540.266 46.9453ZM558.84 46.9453C558.84 51.6719 559.68 55.9297 561.359 59.7188C563.078 63.5078 565.441 66.75 568.449 69.4453C571.496 72.1016 575.07 74.1523 579.172 75.5977C583.312 77.043 587.805 77.7656 592.648 77.7656C597.492 77.7656 601.965 77.043 606.066 75.5977C610.207 74.1523 613.781 72.1016 616.789 69.4453C619.797 66.75 622.16 63.5078 623.879 59.7188C625.598 55.9297 626.457 51.6719 626.457 46.9453C626.457 42.2188 625.598 37.9805 623.879 34.2305C622.16 30.4805 619.797 27.3164 616.789 24.7383C613.781 22.1211 610.207 20.1289 606.066 18.7617C601.965 17.3945 597.492 16.7109 592.648 16.7109C587.805 16.7109 583.312 17.3945 579.172 18.7617C575.07 20.1289 571.496 22.1211 568.449 24.7383C565.441 27.3164 563.078 30.4805 561.359 34.2305C559.68 37.9805 558.84 42.2188 558.84 46.9453ZM665.656 1.41797H712.238C719.27 1.41797 725.363 2.16016 730.52 3.64453C735.676 5.08984 739.953 7.19922 743.352 9.97266C746.75 12.7461 749.27 16.125 750.91 20.1094C752.59 24.0938 753.43 28.6055 753.43 33.6445C753.43 37.043 753.02 40.2852 752.199 43.3711C751.379 46.418 750.109 49.2305 748.391 51.8086C746.711 54.3867 744.582 56.6914 742.004 58.7227C739.426 60.7148 736.398 62.375 732.922 63.7031L752.844 93H730.109L712.883 66.9844H712.355L684.23 66.9258V93H665.656V1.41797ZM712.707 50.8711C716.223 50.8711 719.289 50.4609 721.906 49.6406C724.562 48.8203 726.77 47.668 728.527 46.1836C730.324 44.6992 731.652 42.9023 732.512 40.793C733.41 38.6445 733.859 36.2617 733.859 33.6445C733.859 28.5273 732.102 24.582 728.586 21.8086C725.07 18.9961 719.777 17.5898 712.707 17.5898H684.23V50.8711H712.707ZM769.895 46.6523C769.895 40.1289 771.125 34.0547 773.586 28.4297C776.047 22.7656 779.602 17.8633 784.25 13.7227C788.938 9.54297 794.641 6.26172 801.359 3.87891C808.117 1.49609 815.754 0.304688 824.27 0.304688C831.73 0.304688 838.566 1.06641 844.777 2.58984C851.027 4.07422 856.828 6.35937 862.18 9.44531L853.625 23.5078C852.023 22.4531 850.168 21.5156 848.059 20.6953C845.988 19.875 843.762 19.1914 841.379 18.6445C839.035 18.0586 836.594 17.6094 834.055 17.2969C831.555 16.9844 829.074 16.8281 826.613 16.8281C820.676 16.8281 815.383 17.5703 810.734 19.0547C806.086 20.5 802.16 22.5508 798.957 25.207C795.793 27.8242 793.371 30.9687 791.691 34.6406C790.051 38.2734 789.23 42.2773 789.23 46.6523C789.23 51.1836 790.09 55.3438 791.809 59.1328C793.527 62.9219 796.008 66.2031 799.25 68.9766C802.531 71.7109 806.516 73.8594 811.203 75.4219C815.93 76.9453 821.262 77.707 827.199 77.707C829.895 77.707 832.57 77.5117 835.227 77.1211C837.883 76.7305 840.441 76.2031 842.902 75.5391C845.402 74.8359 847.805 74.0156 850.109 73.0781C852.414 72.1016 854.562 71.0469 856.555 69.9141L865.109 83.9766C860.109 87.1797 854.328 89.6992 847.766 91.5352C841.203 93.332 834.23 94.2305 826.848 94.2305C817.434 94.2305 809.172 93.0195 802.062 90.5977C794.953 88.1367 789.016 84.7773 784.25 80.5195C779.484 76.2227 775.891 71.1836 773.469 65.4023C771.086 59.582 769.895 53.332 769.895 46.6523ZM885.617 1.41797H963.605V17.707H904.191V35.9883H956.809V51.2812H904.191V76.7695H964.836V93H885.617V1.41797Z" fill="white"/>
    </svg>
    